<svg xmlns="http://www.w3.org/2000/svg" xmlns:xlink="http://www.w3.org/1999/xlink" viewBox="-15279.743 -17655.801 838.286 614.871">
  <defs>
    <style>
      .cls-1 {
        fill: url(#linear-gradient);
      }

      .cls-2, .cls-23 {
        fill: #c6e6ff;
      }

      .cls-2 {
        opacity: 0.576;
      }

      .cls-3 {
        fill: url(#linear-gradient-2);
      }

      .cls-16, .cls-17, .cls-19, .cls-22, .cls-25, .cls-27, .cls-31, .cls-4 {
        fill: none;
      }

      .cls-4 {
        stroke: #7c4747;
      }

      .cls-16, .cls-17, .cls-27, .cls-28, .cls-4 {
        stroke-miterlimit: 10;
      }

      .cls-5 {
        fill: #164571;
      }

      .cls-6 {
        fill: #0e71bb;
      }

      .cls-7 {
        fill: #005b9f;
      }

      .cls-8 {
        fill: #21e2e2;
      }

      .cls-9 {
        fill: #ffbc98;
      }

      .cls-10 {
        fill: #52acea;
      }

      .cls-11 {
        fill: #1d8ab6;
      }

      .cls-12 {
        fill: #1f364c;
      }

      .cls-13 {
        fill: #30a3d1;
      }

      .cls-14 {
        fill: #ffe7cb;
      }

      .cls-15 {
        fill: #edd7c0;
      }

      .cls-16, .cls-19 {
        stroke: #30a3d1;
      }

      .cls-17 {
        stroke: #e0c5a8;
      }

      .cls-18 {
        fill: #137fcf;
      }

      .cls-20 {
        fill: #379ae3;
      }

      .cls-21 {
        fill: #0072c6;
      }

      .cls-22 {
        stroke: #005b9f;
        stroke-width: 3px;
      }

      .cls-23 {
        opacity: 0.435;
      }

      .cls-24 {
        opacity: 0.642;
        fill: url(#linear-gradient-3);
      }

      .cls-25, .cls-27, .cls-28, .cls-31 {
        stroke: #fff;
      }

      .cls-25 {
        opacity: 0.3;
      }

      .cls-26 {
        fill: url(#linear-gradient-4);
      }

      .cls-28 {
        fill: #fff;
      }

      .cls-29 {
        fill: url(#linear-gradient-5);
      }

      .cls-30 {
        fill: url(#linear-gradient-6);
      }

      .cls-31 {
        opacity: 0.23;
      }

      .cls-32 {
        filter: url(#Path_5786);
      }

      .cls-33 {
        filter: url(#Path_5785);
      }

      .cls-34 {
        filter: url(#Path_5781);
      }
    </style>
    <linearGradient id="linear-gradient" x1="0.5" y1="1.192" x2="0.487" y2="-0.081" gradientUnits="objectBoundingBox">
      <stop offset="0" stop-color="#c6e6ff"/>
      <stop offset="1" stop-color="#fff"/>
    </linearGradient>
    <linearGradient id="linear-gradient-2" x1="0.5" y1="-1.004" x2="0.5" y2="1" gradientUnits="objectBoundingBox">
      <stop offset="0" stop-color="#288ed9"/>
      <stop offset="1" stop-color="#137fcf" stop-opacity="0.051"/>
    </linearGradient>
    <linearGradient id="linear-gradient-3" x1="0.5" y1="1" x2="0.5" gradientUnits="objectBoundingBox">
      <stop offset="0" stop-color="#288ed9" stop-opacity="0"/>
      <stop offset="1" stop-color="#005b9f"/>
    </linearGradient>
    <linearGradient id="linear-gradient-4" x1="0.5" x2="0.5" y2="1" gradientUnits="objectBoundingBox">
      <stop offset="0" stop-color="#419ee3"/>
      <stop offset="1" stop-color="#0d79c9"/>
    </linearGradient>
    <filter id="Path_5781" x="-14734.01" y="-17346.771" width="105.391" height="117.281" filterUnits="userSpaceOnUse">
      <feOffset dx="2" input="SourceAlpha"/>
      <feGaussianBlur stdDeviation="2.5" result="blur"/>
      <feFlood flood-opacity="0.051"/>
      <feComposite operator="in" in2="blur"/>
      <feComposite in="SourceGraphic"/>
    </filter>
    <linearGradient id="linear-gradient-5" x1="0.5" x2="0.175" y2="1.103" gradientUnits="objectBoundingBox">
      <stop offset="0" stop-color="#ffbc98"/>
      <stop offset="1" stop-color="#ff9f6c"/>
    </linearGradient>
    <filter id="Path_5785" x="-14657.732" y="-17361.443" width="114.317" height="144.346" filterUnits="userSpaceOnUse">
      <feOffset dy="3" input="SourceAlpha"/>
      <feGaussianBlur stdDeviation="2.5" result="blur-2"/>
      <feFlood flood-opacity="0.051"/>
      <feComposite operator="in" in2="blur-2"/>
      <feComposite in="SourceGraphic"/>
    </filter>
    <linearGradient id="linear-gradient-6" x1="0.056" y1="0.531" x2="0.957" y2="0.539" gradientUnits="objectBoundingBox">
      <stop offset="0" stop-color="#21e2e2"/>
      <stop offset="1" stop-color="#19dbdb"/>
    </linearGradient>
    <filter id="Path_5786" x="-14693.008" y="-17226.543" width="97.913" height="99.543" filterUnits="userSpaceOnUse">
      <feOffset dx="5" input="SourceAlpha"/>
      <feGaussianBlur stdDeviation="5" result="blur-3"/>
      <feFlood flood-opacity="0.051"/>
      <feComposite operator="in" in2="blur-3"/>
      <feComposite in="SourceGraphic"/>
    </filter>
  </defs>
  <g id="Group_8035" data-name="Group 8035" transform="translate(-15375 -17863)">
    <path id="Path_5765" data-name="Path 5765" class="cls-1" d="M338.563,59.823C459.7,137.122,598.4,171.906,598.4,171.906S751.141,195.1,694.96,369.017s-63.509,236.2-151.566,240.649c-83.51,2.38-130.416-32.083-213.041-26.146-72.578,5.588-122.557,38.288-243.83-9.484C-107.812,488.157-93.327-212.654,338.563,59.823Z" transform="translate(196.574 212.287)"/>
    <path id="Path_5766" data-name="Path 5766" class="cls-2" d="M43.772,214.013c-18.744-22.543,11.979-77.161-29.688-110.461S36.833,47.052,33.131-1.512,131.346,61.157,95,143.393c-9.451,21.381,13.08,80.243,7.4,90.751C86.865,262.884,62.516,236.556,43.772,214.013Z" transform="translate(676.039 505.529) rotate(-83)"/>
    <ellipse id="Ellipse_1273" data-name="Ellipse 1273" class="cls-3" cx="280.5" cy="40" rx="280.5" ry="40" transform="translate(253 675)"/>
    <path id="Path_5618" data-name="Path 5618" class="cls-4" d="M96,11.6" transform="translate(356.877 254.422)"/>
    <g id="Group_6201" data-name="Group 6201" transform="translate(34 -16.191)">
      <g id="Group_6242" data-name="Group 6242" transform="translate(-139.539 -1362.083)">
        <rect id="Rectangle_1567" data-name="Rectangle 1567" class="cls-5" width="180.942" height="14.332" rx="2" transform="translate(400.946 1912.345)"/>
        <rect id="Rectangle_1634" data-name="Rectangle 1634" class="cls-6" width="192.668" height="53.947" rx="5" transform="translate(394.839 1862.252)"/>
        <path id="Path_5065" data-name="Path 5065" class="cls-7" d="M5.365,0h65.28V53.947H5.365A5.365,5.365,0,0,1,0,48.582V5.365A5.365,5.365,0,0,1,5.365,0Z" transform="translate(394.838 1862.252)"/>
        <g id="Group_115" data-name="Group 115" transform="translate(416.077 1884.527)">
          <rect id="Rectangle_1425" data-name="Rectangle 1425" class="cls-8" width="11.224" height="11.671" rx="5.612"/>
          <rect id="Rectangle_1442" data-name="Rectangle 1442" class="cls-9" width="11.224" height="11.671" rx="5.612" transform="translate(16.34)"/>
        </g>
        <g id="Group_5709" data-name="Group 5709" transform="translate(478.891 1877.527)">
          <g id="Group_5584" data-name="Group 5584" transform="translate(0 0)">
            <rect id="Rectangle_1405" data-name="Rectangle 1405" class="cls-10" width="5.429" height="5.429" rx="2.714"/>
            <rect id="Rectangle_1424" data-name="Rectangle 1424" class="cls-10" width="5.429" height="5.429" rx="2.714" transform="translate(6.514 10.857)"/>
            <rect id="Rectangle_1410" data-name="Rectangle 1410" class="cls-10" width="5.429" height="5.429" rx="2.714" transform="translate(54.286)"/>
            <rect id="Rectangle_1419" data-name="Rectangle 1419" class="cls-10" width="5.429" height="5.429" rx="2.714" transform="translate(60.8 10.857)"/>
            <rect id="Rectangle_1406" data-name="Rectangle 1406" class="cls-10" width="5.429" height="5.429" rx="2.714" transform="translate(10.857)"/>
            <rect id="Rectangle_1423" data-name="Rectangle 1423" class="cls-10" width="5.429" height="5.429" rx="2.714" transform="translate(17.372 10.857)"/>
            <rect id="Rectangle_1407" data-name="Rectangle 1407" class="cls-10" width="5.429" height="5.429" rx="2.714" transform="translate(21.714)"/>
            <rect id="Rectangle_1422" data-name="Rectangle 1422" class="cls-10" width="5.429" height="5.429" rx="2.714" transform="translate(28.229 10.857)"/>
            <rect id="Rectangle_1408" data-name="Rectangle 1408" class="cls-10" width="5.429" height="5.429" rx="2.714" transform="translate(32.571)"/>
            <rect id="Rectangle_1421" data-name="Rectangle 1421" class="cls-10" width="5.429" height="5.429" rx="2.714" transform="translate(39.086 10.857)"/>
            <rect id="Rectangle_1409" data-name="Rectangle 1409" class="cls-10" width="5.429" height="5.429" rx="2.714" transform="translate(43.429)"/>
            <rect id="Rectangle_1420" data-name="Rectangle 1420" class="cls-10" width="5.429" height="5.429" rx="2.714" transform="translate(49.943 10.857)"/>
            <rect id="Rectangle_2876" data-name="Rectangle 2876" class="cls-10" width="5.429" height="5.429" rx="2.714" transform="translate(-0.486 20.857)"/>
            <rect id="Rectangle_2877" data-name="Rectangle 2877" class="cls-10" width="5.429" height="5.429" rx="2.714" transform="translate(53.8 20.857)"/>
            <rect id="Rectangle_2878" data-name="Rectangle 2878" class="cls-10" width="5.429" height="5.429" rx="2.714" transform="translate(10.372 20.857)"/>
            <rect id="Rectangle_2879" data-name="Rectangle 2879" class="cls-10" width="5.429" height="5.429" rx="2.714" transform="translate(21.229 20.857)"/>
            <rect id="Rectangle_2880" data-name="Rectangle 2880" class="cls-10" width="5.429" height="5.429" rx="2.714" transform="translate(33.085 20.857)"/>
            <rect id="Rectangle_2881" data-name="Rectangle 2881" class="cls-10" width="5.429" height="5.429" rx="2.714" transform="translate(43.942 20.857)"/>
            <rect id="Rectangle_2882" data-name="Rectangle 2882" class="cls-10" width="5.429" height="5.429" rx="2.714" transform="translate(74.286 0)"/>
            <rect id="Rectangle_2883" data-name="Rectangle 2883" class="cls-10" width="5.429" height="5.429" rx="2.714" transform="translate(80.8 10.857)"/>
            <rect id="Rectangle_2884" data-name="Rectangle 2884" class="cls-10" width="5.429" height="5.429" rx="2.714" transform="translate(63.428 0)"/>
            <rect id="Rectangle_2885" data-name="Rectangle 2885" class="cls-10" width="5.429" height="5.429" rx="2.714" transform="translate(70.942 10.857)"/>
            <rect id="Rectangle_2886" data-name="Rectangle 2886" class="cls-10" width="5.429" height="5.429" rx="2.714" transform="translate(73.8 20.857)"/>
            <rect id="Rectangle_2887" data-name="Rectangle 2887" class="cls-10" width="5.429" height="5.429" rx="2.714" transform="translate(63.942 20.857)"/>
            <rect id="Rectangle_2888" data-name="Rectangle 2888" class="cls-10" width="5.429" height="5.429" rx="2.714" transform="translate(84.286 0)"/>
            <rect id="Rectangle_2889" data-name="Rectangle 2889" class="cls-10" width="5.429" height="5.429" rx="2.714" transform="translate(90.8 10.857)"/>
            <rect id="Rectangle_2890" data-name="Rectangle 2890" class="cls-10" width="5.429" height="5.429" rx="2.714" transform="translate(83.8 20.857)"/>
          </g>
        </g>
      </g>
      <g id="Group_6243" data-name="Group 6243" transform="translate(-139.539 -1298.083)">
        <rect id="Rectangle_1567-2" data-name="Rectangle 1567" class="cls-5" width="180.942" height="14.332" rx="2" transform="translate(400.946 1912.345)"/>
        <rect id="Rectangle_1634-2" data-name="Rectangle 1634" class="cls-6" width="192.668" height="53.947" rx="5" transform="translate(394.839 1862.252)"/>
        <path id="Path_5065-2" data-name="Path 5065" class="cls-7" d="M5.365,0h65.28V53.947H5.365A5.365,5.365,0,0,1,0,48.582V5.365A5.365,5.365,0,0,1,5.365,0Z" transform="translate(394.838 1862.252)"/>
        <g id="Group_115-2" data-name="Group 115" transform="translate(416.077 1884.527)">
          <rect id="Rectangle_1425-2" data-name="Rectangle 1425" class="cls-8" width="11.224" height="11.671" rx="5.612"/>
          <rect id="Rectangle_1442-2" data-name="Rectangle 1442" class="cls-9" width="11.224" height="11.671" rx="5.612" transform="translate(16.34)"/>
        </g>
        <g id="Group_5709-2" data-name="Group 5709" transform="translate(478.891 1877.527)">
          <g id="Group_5584-2" data-name="Group 5584" transform="translate(0 0)">
            <rect id="Rectangle_1405-2" data-name="Rectangle 1405" class="cls-10" width="5.429" height="5.429" rx="2.714"/>
            <rect id="Rectangle_1424-2" data-name="Rectangle 1424" class="cls-10" width="5.429" height="5.429" rx="2.714" transform="translate(6.514 10.857)"/>
            <rect id="Rectangle_1410-2" data-name="Rectangle 1410" class="cls-10" width="5.429" height="5.429" rx="2.714" transform="translate(54.286)"/>
            <rect id="Rectangle_1419-2" data-name="Rectangle 1419" class="cls-10" width="5.429" height="5.429" rx="2.714" transform="translate(60.8 10.857)"/>
            <rect id="Rectangle_1406-2" data-name="Rectangle 1406" class="cls-10" width="5.429" height="5.429" rx="2.714" transform="translate(10.857)"/>
            <rect id="Rectangle_1423-2" data-name="Rectangle 1423" class="cls-10" width="5.429" height="5.429" rx="2.714" transform="translate(17.372 10.857)"/>
            <rect id="Rectangle_1407-2" data-name="Rectangle 1407" class="cls-10" width="5.429" height="5.429" rx="2.714" transform="translate(21.714)"/>
            <rect id="Rectangle_1422-2" data-name="Rectangle 1422" class="cls-10" width="5.429" height="5.429" rx="2.714" transform="translate(28.229 10.857)"/>
            <rect id="Rectangle_1408-2" data-name="Rectangle 1408" class="cls-10" width="5.429" height="5.429" rx="2.714" transform="translate(32.571)"/>
            <rect id="Rectangle_1421-2" data-name="Rectangle 1421" class="cls-10" width="5.429" height="5.429" rx="2.714" transform="translate(39.086 10.857)"/>
            <rect id="Rectangle_1409-2" data-name="Rectangle 1409" class="cls-10" width="5.429" height="5.429" rx="2.714" transform="translate(43.429)"/>
            <rect id="Rectangle_1420-2" data-name="Rectangle 1420" class="cls-10" width="5.429" height="5.429" rx="2.714" transform="translate(49.943 10.857)"/>
            <rect id="Rectangle_2876-2" data-name="Rectangle 2876" class="cls-10" width="5.429" height="5.429" rx="2.714" transform="translate(-0.486 20.857)"/>
            <rect id="Rectangle_2877-2" data-name="Rectangle 2877" class="cls-10" width="5.429" height="5.429" rx="2.714" transform="translate(53.8 20.857)"/>
            <rect id="Rectangle_2878-2" data-name="Rectangle 2878" class="cls-10" width="5.429" height="5.429" rx="2.714" transform="translate(10.372 20.857)"/>
            <rect id="Rectangle_2879-2" data-name="Rectangle 2879" class="cls-10" width="5.429" height="5.429" rx="2.714" transform="translate(21.229 20.857)"/>
            <rect id="Rectangle_2880-2" data-name="Rectangle 2880" class="cls-10" width="5.429" height="5.429" rx="2.714" transform="translate(33.085 20.857)"/>
            <rect id="Rectangle_2881-2" data-name="Rectangle 2881" class="cls-10" width="5.429" height="5.429" rx="2.714" transform="translate(43.942 20.857)"/>
            <rect id="Rectangle_2882-2" data-name="Rectangle 2882" class="cls-10" width="5.429" height="5.429" rx="2.714" transform="translate(74.286 0)"/>
            <rect id="Rectangle_2883-2" data-name="Rectangle 2883" class="cls-10" width="5.429" height="5.429" rx="2.714" transform="translate(80.8 10.857)"/>
            <rect id="Rectangle_2884-2" data-name="Rectangle 2884" class="cls-10" width="5.429" height="5.429" rx="2.714" transform="translate(63.428 0)"/>
            <rect id="Rectangle_2885-2" data-name="Rectangle 2885" class="cls-10" width="5.429" height="5.429" rx="2.714" transform="translate(70.942 10.857)"/>
            <rect id="Rectangle_2886-2" data-name="Rectangle 2886" class="cls-10" width="5.429" height="5.429" rx="2.714" transform="translate(73.8 20.857)"/>
            <rect id="Rectangle_2887-2" data-name="Rectangle 2887" class="cls-10" width="5.429" height="5.429" rx="2.714" transform="translate(63.942 20.857)"/>
            <rect id="Rectangle_2888-2" data-name="Rectangle 2888" class="cls-10" width="5.429" height="5.429" rx="2.714" transform="translate(84.286 0)"/>
            <rect id="Rectangle_2889-2" data-name="Rectangle 2889" class="cls-10" width="5.429" height="5.429" rx="2.714" transform="translate(90.8 10.857)"/>
            <rect id="Rectangle_2890-2" data-name="Rectangle 2890" class="cls-10" width="5.429" height="5.429" rx="2.714" transform="translate(83.8 20.857)"/>
          </g>
        </g>
      </g>
      <g id="Group_6244" data-name="Group 6244" transform="translate(-139.539 -1426.083)">
        <rect id="Rectangle_1567-3" data-name="Rectangle 1567" class="cls-5" width="180.942" height="14.332" rx="2" transform="translate(400.946 1912.345)"/>
        <rect id="Rectangle_1634-3" data-name="Rectangle 1634" class="cls-6" width="192.668" height="53.947" rx="5" transform="translate(394.839 1862.252)"/>
        <path id="Path_5065-3" data-name="Path 5065" class="cls-7" d="M5.365,0h65.28V53.947H5.365A5.365,5.365,0,0,1,0,48.582V5.365A5.365,5.365,0,0,1,5.365,0Z" transform="translate(394.838 1862.252)"/>
        <g id="Group_115-3" data-name="Group 115" transform="translate(416.077 1884.527)">
          <rect id="Rectangle_1425-3" data-name="Rectangle 1425" class="cls-8" width="11.224" height="11.671" rx="5.612"/>
          <rect id="Rectangle_1442-3" data-name="Rectangle 1442" class="cls-9" width="11.224" height="11.671" rx="5.612" transform="translate(16.34)"/>
        </g>
        <g id="Group_5709-3" data-name="Group 5709" transform="translate(478.891 1877.527)">
          <g id="Group_5584-3" data-name="Group 5584" transform="translate(0 0)">
            <rect id="Rectangle_1405-3" data-name="Rectangle 1405" class="cls-10" width="5.429" height="5.429" rx="2.714"/>
            <rect id="Rectangle_1424-3" data-name="Rectangle 1424" class="cls-10" width="5.429" height="5.429" rx="2.714" transform="translate(6.514 10.857)"/>
            <rect id="Rectangle_1410-3" data-name="Rectangle 1410" class="cls-10" width="5.429" height="5.429" rx="2.714" transform="translate(54.286)"/>
            <rect id="Rectangle_1419-3" data-name="Rectangle 1419" class="cls-10" width="5.429" height="5.429" rx="2.714" transform="translate(60.8 10.857)"/>
            <rect id="Rectangle_1406-3" data-name="Rectangle 1406" class="cls-10" width="5.429" height="5.429" rx="2.714" transform="translate(10.857)"/>
            <rect id="Rectangle_1423-3" data-name="Rectangle 1423" class="cls-10" width="5.429" height="5.429" rx="2.714" transform="translate(17.372 10.857)"/>
            <rect id="Rectangle_1407-3" data-name="Rectangle 1407" class="cls-10" width="5.429" height="5.429" rx="2.714" transform="translate(21.714)"/>
            <rect id="Rectangle_1422-3" data-name="Rectangle 1422" class="cls-10" width="5.429" height="5.429" rx="2.714" transform="translate(28.229 10.857)"/>
            <rect id="Rectangle_1408-3" data-name="Rectangle 1408" class="cls-10" width="5.429" height="5.429" rx="2.714" transform="translate(32.571)"/>
            <rect id="Rectangle_1421-3" data-name="Rectangle 1421" class="cls-10" width="5.429" height="5.429" rx="2.714" transform="translate(39.086 10.857)"/>
            <rect id="Rectangle_1409-3" data-name="Rectangle 1409" class="cls-10" width="5.429" height="5.429" rx="2.714" transform="translate(43.429)"/>
            <rect id="Rectangle_1420-3" data-name="Rectangle 1420" class="cls-10" width="5.429" height="5.429" rx="2.714" transform="translate(49.943 10.857)"/>
            <rect id="Rectangle_2876-3" data-name="Rectangle 2876" class="cls-10" width="5.429" height="5.429" rx="2.714" transform="translate(-0.486 20.857)"/>
            <rect id="Rectangle_2877-3" data-name="Rectangle 2877" class="cls-10" width="5.429" height="5.429" rx="2.714" transform="translate(53.8 20.857)"/>
            <rect id="Rectangle_2878-3" data-name="Rectangle 2878" class="cls-10" width="5.429" height="5.429" rx="2.714" transform="translate(10.372 20.857)"/>
            <rect id="Rectangle_2879-3" data-name="Rectangle 2879" class="cls-10" width="5.429" height="5.429" rx="2.714" transform="translate(21.229 20.857)"/>
            <rect id="Rectangle_2880-3" data-name="Rectangle 2880" class="cls-10" width="5.429" height="5.429" rx="2.714" transform="translate(33.085 20.857)"/>
            <rect id="Rectangle_2881-3" data-name="Rectangle 2881" class="cls-10" width="5.429" height="5.429" rx="2.714" transform="translate(43.942 20.857)"/>
            <rect id="Rectangle_2882-3" data-name="Rectangle 2882" class="cls-10" width="5.429" height="5.429" rx="2.714" transform="translate(74.286 0)"/>
            <rect id="Rectangle_2883-3" data-name="Rectangle 2883" class="cls-10" width="5.429" height="5.429" rx="2.714" transform="translate(80.8 10.857)"/>
            <rect id="Rectangle_2884-3" data-name="Rectangle 2884" class="cls-10" width="5.429" height="5.429" rx="2.714" transform="translate(63.428 0)"/>
            <rect id="Rectangle_2885-3" data-name="Rectangle 2885" class="cls-10" width="5.429" height="5.429" rx="2.714" transform="translate(70.942 10.857)"/>
            <rect id="Rectangle_2886-3" data-name="Rectangle 2886" class="cls-10" width="5.429" height="5.429" rx="2.714" transform="translate(73.8 20.857)"/>
            <rect id="Rectangle_2887-3" data-name="Rectangle 2887" class="cls-10" width="5.429" height="5.429" rx="2.714" transform="translate(63.942 20.857)"/>
            <rect id="Rectangle_2888-3" data-name="Rectangle 2888" class="cls-10" width="5.429" height="5.429" rx="2.714" transform="translate(84.286 0)"/>
            <rect id="Rectangle_2889-3" data-name="Rectangle 2889" class="cls-10" width="5.429" height="5.429" rx="2.714" transform="translate(90.8 10.857)"/>
            <rect id="Rectangle_2890-3" data-name="Rectangle 2890" class="cls-10" width="5.429" height="5.429" rx="2.714" transform="translate(83.8 20.857)"/>
          </g>
        </g>
      </g>
      <g id="Group_6241" data-name="Group 6241" transform="translate(-139.539 -1234.083)">
        <rect id="Rectangle_1567-4" data-name="Rectangle 1567" class="cls-5" width="180.942" height="14.332" rx="2" transform="translate(400.946 1912.345)"/>
        <rect id="Rectangle_1634-4" data-name="Rectangle 1634" class="cls-6" width="192.668" height="53.947" rx="5" transform="translate(394.839 1862.252)"/>
        <path id="Path_5065-4" data-name="Path 5065" class="cls-7" d="M5.365,0h65.28V53.947H5.365A5.365,5.365,0,0,1,0,48.582V5.365A5.365,5.365,0,0,1,5.365,0Z" transform="translate(394.838 1862.252)"/>
        <g id="Group_115-4" data-name="Group 115" transform="translate(416.077 1884.527)">
          <rect id="Rectangle_1425-4" data-name="Rectangle 1425" class="cls-8" width="11.224" height="11.671" rx="5.612"/>
          <rect id="Rectangle_1442-4" data-name="Rectangle 1442" class="cls-9" width="11.224" height="11.671" rx="5.612" transform="translate(16.34)"/>
        </g>
        <g id="Group_5709-4" data-name="Group 5709" transform="translate(478.891 1877.527)">
          <g id="Group_5584-4" data-name="Group 5584" transform="translate(0 0)">
            <rect id="Rectangle_1405-4" data-name="Rectangle 1405" class="cls-10" width="5.429" height="5.429" rx="2.714"/>
            <rect id="Rectangle_1424-4" data-name="Rectangle 1424" class="cls-10" width="5.429" height="5.429" rx="2.714" transform="translate(6.514 10.857)"/>
            <rect id="Rectangle_1410-4" data-name="Rectangle 1410" class="cls-10" width="5.429" height="5.429" rx="2.714" transform="translate(54.286)"/>
            <rect id="Rectangle_1419-4" data-name="Rectangle 1419" class="cls-10" width="5.429" height="5.429" rx="2.714" transform="translate(60.8 10.857)"/>
            <rect id="Rectangle_1406-4" data-name="Rectangle 1406" class="cls-10" width="5.429" height="5.429" rx="2.714" transform="translate(10.857)"/>
            <rect id="Rectangle_1423-4" data-name="Rectangle 1423" class="cls-10" width="5.429" height="5.429" rx="2.714" transform="translate(17.372 10.857)"/>
            <rect id="Rectangle_1407-4" data-name="Rectangle 1407" class="cls-10" width="5.429" height="5.429" rx="2.714" transform="translate(21.714)"/>
            <rect id="Rectangle_1422-4" data-name="Rectangle 1422" class="cls-10" width="5.429" height="5.429" rx="2.714" transform="translate(28.229 10.857)"/>
            <rect id="Rectangle_1408-4" data-name="Rectangle 1408" class="cls-10" width="5.429" height="5.429" rx="2.714" transform="translate(32.571)"/>
            <rect id="Rectangle_1421-4" data-name="Rectangle 1421" class="cls-10" width="5.429" height="5.429" rx="2.714" transform="translate(39.086 10.857)"/>
            <rect id="Rectangle_1409-4" data-name="Rectangle 1409" class="cls-10" width="5.429" height="5.429" rx="2.714" transform="translate(43.429)"/>
            <rect id="Rectangle_1420-4" data-name="Rectangle 1420" class="cls-10" width="5.429" height="5.429" rx="2.714" transform="translate(49.943 10.857)"/>
            <rect id="Rectangle_2876-4" data-name="Rectangle 2876" class="cls-10" width="5.429" height="5.429" rx="2.714" transform="translate(-0.486 20.857)"/>
            <rect id="Rectangle_2877-4" data-name="Rectangle 2877" class="cls-10" width="5.429" height="5.429" rx="2.714" transform="translate(53.8 20.857)"/>
            <rect id="Rectangle_2878-4" data-name="Rectangle 2878" class="cls-10" width="5.429" height="5.429" rx="2.714" transform="translate(10.372 20.857)"/>
            <rect id="Rectangle_2879-4" data-name="Rectangle 2879" class="cls-10" width="5.429" height="5.429" rx="2.714" transform="translate(21.229 20.857)"/>
            <rect id="Rectangle_2880-4" data-name="Rectangle 2880" class="cls-10" width="5.429" height="5.429" rx="2.714" transform="translate(33.085 20.857)"/>
            <rect id="Rectangle_2881-4" data-name="Rectangle 2881" class="cls-10" width="5.429" height="5.429" rx="2.714" transform="translate(43.942 20.857)"/>
            <rect id="Rectangle_2882-4" data-name="Rectangle 2882" class="cls-10" width="5.429" height="5.429" rx="2.714" transform="translate(74.286 0)"/>
            <rect id="Rectangle_2883-4" data-name="Rectangle 2883" class="cls-10" width="5.429" height="5.429" rx="2.714" transform="translate(80.8 10.857)"/>
            <rect id="Rectangle_2884-4" data-name="Rectangle 2884" class="cls-10" width="5.429" height="5.429" rx="2.714" transform="translate(63.428 0)"/>
            <rect id="Rectangle_2885-4" data-name="Rectangle 2885" class="cls-10" width="5.429" height="5.429" rx="2.714" transform="translate(70.942 10.857)"/>
            <rect id="Rectangle_2886-4" data-name="Rectangle 2886" class="cls-10" width="5.429" height="5.429" rx="2.714" transform="translate(73.8 20.857)"/>
            <rect id="Rectangle_2887-4" data-name="Rectangle 2887" class="cls-10" width="5.429" height="5.429" rx="2.714" transform="translate(63.942 20.857)"/>
            <rect id="Rectangle_2888-4" data-name="Rectangle 2888" class="cls-10" width="5.429" height="5.429" rx="2.714" transform="translate(84.286 0)"/>
            <rect id="Rectangle_2889-4" data-name="Rectangle 2889" class="cls-10" width="5.429" height="5.429" rx="2.714" transform="translate(90.8 10.857)"/>
            <rect id="Rectangle_2890-4" data-name="Rectangle 2890" class="cls-10" width="5.429" height="5.429" rx="2.714" transform="translate(83.8 20.857)"/>
          </g>
        </g>
      </g>
      <g id="Group_5964" data-name="Group 5964" transform="translate(-139.54 -1170.083)">
        <rect id="Rectangle_1634-5" data-name="Rectangle 1634" class="cls-6" width="192.668" height="53.947" rx="5" transform="translate(394.839 1862.252)"/>
        <path id="Path_5065-5" data-name="Path 5065" class="cls-7" d="M5.365,0h65.28V53.947H5.365A5.365,5.365,0,0,1,0,48.582V5.365A5.365,5.365,0,0,1,5.365,0Z" transform="translate(394.838 1862.252)"/>
        <g id="Group_115-5" data-name="Group 115" transform="translate(416.077 1884.527)">
          <rect id="Rectangle_1425-5" data-name="Rectangle 1425" class="cls-8" width="11.224" height="11.671" rx="5.612"/>
          <rect id="Rectangle_1442-5" data-name="Rectangle 1442" class="cls-9" width="11.224" height="11.671" rx="5.612" transform="translate(16.34)"/>
        </g>
        <g id="Group_5709-5" data-name="Group 5709" transform="translate(478.891 1877.527)">
          <g id="Group_5584-5" data-name="Group 5584" transform="translate(0 0)">
            <rect id="Rectangle_1405-5" data-name="Rectangle 1405" class="cls-10" width="5.429" height="5.429" rx="2.714"/>
            <rect id="Rectangle_1424-5" data-name="Rectangle 1424" class="cls-10" width="5.429" height="5.429" rx="2.714" transform="translate(6.514 10.857)"/>
            <rect id="Rectangle_1410-5" data-name="Rectangle 1410" class="cls-10" width="5.429" height="5.429" rx="2.714" transform="translate(54.286)"/>
            <rect id="Rectangle_1419-5" data-name="Rectangle 1419" class="cls-10" width="5.429" height="5.429" rx="2.714" transform="translate(60.8 10.857)"/>
            <rect id="Rectangle_1406-5" data-name="Rectangle 1406" class="cls-10" width="5.429" height="5.429" rx="2.714" transform="translate(10.857)"/>
            <rect id="Rectangle_1423-5" data-name="Rectangle 1423" class="cls-10" width="5.429" height="5.429" rx="2.714" transform="translate(17.372 10.857)"/>
            <rect id="Rectangle_1407-5" data-name="Rectangle 1407" class="cls-10" width="5.429" height="5.429" rx="2.714" transform="translate(21.714)"/>
            <rect id="Rectangle_1422-5" data-name="Rectangle 1422" class="cls-10" width="5.429" height="5.429" rx="2.714" transform="translate(28.229 10.857)"/>
            <rect id="Rectangle_1408-5" data-name="Rectangle 1408" class="cls-10" width="5.429" height="5.429" rx="2.714" transform="translate(32.571)"/>
            <rect id="Rectangle_1421-5" data-name="Rectangle 1421" class="cls-10" width="5.429" height="5.429" rx="2.714" transform="translate(39.086 10.857)"/>
            <rect id="Rectangle_1409-5" data-name="Rectangle 1409" class="cls-10" width="5.429" height="5.429" rx="2.714" transform="translate(43.429)"/>
            <rect id="Rectangle_1420-5" data-name="Rectangle 1420" class="cls-10" width="5.429" height="5.429" rx="2.714" transform="translate(49.943 10.857)"/>
            <rect id="Rectangle_2876-5" data-name="Rectangle 2876" class="cls-10" width="5.429" height="5.429" rx="2.714" transform="translate(-0.486 20.857)"/>
            <rect id="Rectangle_2877-5" data-name="Rectangle 2877" class="cls-10" width="5.429" height="5.429" rx="2.714" transform="translate(53.8 20.857)"/>
            <rect id="Rectangle_2878-5" data-name="Rectangle 2878" class="cls-10" width="5.429" height="5.429" rx="2.714" transform="translate(10.372 20.857)"/>
            <rect id="Rectangle_2879-5" data-name="Rectangle 2879" class="cls-10" width="5.429" height="5.429" rx="2.714" transform="translate(21.229 20.857)"/>
            <rect id="Rectangle_2880-5" data-name="Rectangle 2880" class="cls-10" width="5.429" height="5.429" rx="2.714" transform="translate(33.085 20.857)"/>
            <rect id="Rectangle_2881-5" data-name="Rectangle 2881" class="cls-10" width="5.429" height="5.429" rx="2.714" transform="translate(43.942 20.857)"/>
            <rect id="Rectangle_2882-5" data-name="Rectangle 2882" class="cls-10" width="5.429" height="5.429" rx="2.714" transform="translate(74.286 0)"/>
            <rect id="Rectangle_2883-5" data-name="Rectangle 2883" class="cls-10" width="5.429" height="5.429" rx="2.714" transform="translate(80.8 10.857)"/>
            <rect id="Rectangle_2884-5" data-name="Rectangle 2884" class="cls-10" width="5.429" height="5.429" rx="2.714" transform="translate(63.428 0)"/>
            <rect id="Rectangle_2885-5" data-name="Rectangle 2885" class="cls-10" width="5.429" height="5.429" rx="2.714" transform="translate(70.942 10.857)"/>
            <rect id="Rectangle_2886-5" data-name="Rectangle 2886" class="cls-10" width="5.429" height="5.429" rx="2.714" transform="translate(73.8 20.857)"/>
            <rect id="Rectangle_2887-5" data-name="Rectangle 2887" class="cls-10" width="5.429" height="5.429" rx="2.714" transform="translate(63.942 20.857)"/>
            <rect id="Rectangle_2888-5" data-name="Rectangle 2888" class="cls-10" width="5.429" height="5.429" rx="2.714" transform="translate(84.286 0)"/>
            <rect id="Rectangle_2889-5" data-name="Rectangle 2889" class="cls-10" width="5.429" height="5.429" rx="2.714" transform="translate(90.8 10.857)"/>
            <rect id="Rectangle_2890-5" data-name="Rectangle 2890" class="cls-10" width="5.429" height="5.429" rx="2.714" transform="translate(83.8 20.857)"/>
          </g>
        </g>
      </g>
      <g id="Group_6053" data-name="Group 6053" transform="translate(466.708 666.543) rotate(-106)">
        <path id="Path_4776" data-name="Path 4776" class="cls-11" d="M50.357,34.656l26.05-2.443a3.115,3.115,0,0,0,2.726-3.053V4.58A4.608,4.608,0,0,0,74.438,0L7.951,1.374c-10.6,0-10.6,18.32,0,21.373Z" transform="translate(0.73 0.285)"/>
        <rect id="Rectangle_2230" data-name="Rectangle 2230" class="cls-12" width="81.739" height="6.243" rx="3" transform="translate(0 0)"/>
        <g id="Group_5322" data-name="Group 5322" transform="matrix(-0.996, -0.087, 0.087, -0.996, 71.364, 28.348)">
          <g id="Group_5321" data-name="Group 5321" transform="matrix(0.999, 0.035, -0.035, 0.999, 8.251, 0)">
            <path id="Path_4220" data-name="Path 4220" class="cls-7" d="M43.83,1.491C36.929-.583,27.039-1.627,21.3,6.225c-3.216,3.822-6.778,5.99-10.573,6.193A14.148,14.148,0,0,1,1.638,9.411a1.136,1.136,0,0,0-1.38,0,.873.873,0,0,0,0,1.241,16.416,16.416,0,0,0,10.7,3.525c4.484-.2,8.506-2.576,12.067-6.915,8.383-11.468,26.56-1.732,27.365-1.317a1.119,1.119,0,0,0,1.38-.205A.928.928,0,0,0,51.422,4.5,45.2,45.2,0,0,0,43.83,1.491Z" transform="translate(0 0)"/>
          </g>
          <path id="Path_4786" data-name="Path 4786" class="cls-7" d="M6.164.014H5.549A5.183,5.183,0,0,0,.013,4.869v.62a5.214,5.214,0,0,0,4.825,5.586h.615A5.183,5.183,0,0,0,10.99,6.221V5.6A5.214,5.214,0,0,0,6.164.014Z" transform="translate(0 5.028)"/>
        </g>
      </g>
      <g id="Group_6057" data-name="Group 6057" transform="translate(381.549 403.022)">
        <g id="Group_5126" data-name="Group 5126" transform="translate(0)">
          <path id="Path_4195" data-name="Path 4195" class="cls-13" d="M253.98,333.853c-14.252-4.306-30.042-1.025-34.554,0a1.359,1.359,0,0,0-1.025,1.538l3.281,23.89a7.174,7.174,0,0,0,7.075,6.152h15.893a7.174,7.174,0,0,0,7.075-6.152l3.281-23.89A1.42,1.42,0,0,0,253.98,333.853Z" transform="translate(-218.385 -331.691)"/>
          <ellipse id="Ellipse_600" data-name="Ellipse 600" class="cls-7" cx="15.585" cy="2.153" rx="15.585" ry="2.153" transform="translate(2.681 1.548)"/>
          <path id="Path_4196" data-name="Path 4196" class="cls-13" d="M252.447,343.477c2.051-2.051,5.793-4.306,7.023,0,1.435,7.075-4.685,10.331-8.479,11.459l-.513,3.589c6.357-1.333,13.911-7.864,12.578-16.374-.318-3.434-5.619-7.444-9.823-3.65Z" transform="translate(-217.572 -331.557)"/>
        </g>
      </g>
      <g id="Group_6058" data-name="Group 6058" transform="translate(424.884 223.391)">
        <g id="Group_6054" data-name="Group 6054" transform="matrix(0.966, 0.259, -0.259, 0.966, 79.938, 0)">
          <path id="Path_5088" data-name="Path 5088" class="cls-14" d="M54.706,13.376C57.1,12.81,58,35.16,58,35.966c-.108,1.382,4.6,7.392,4.494,10.041-.1,2.073-7.181,1.465-7.181,1.465,3.5,16.717-2.521,23.14-19.772,17.534l-1.2,13.01C47.4,89.478,36.177,105.553,11.586,91.16L1.394,82.59,0,51.139,4.636,16.03,25.9,0l21.58,4.244Z" transform="translate(9.031 27.393)"/>
          <path id="Path_5089" data-name="Path 5089" class="cls-15" d="M22,15.986C13.9,14.106,6,9.233,1.855,0-4.03,10.685,4.563,19.017,20.907,25.886Z" transform="translate(22.683 76.759)"/>
          <path id="Path_5090" data-name="Path 5090" class="cls-6" d="M35.768,36.725C76.9,51.653,84.892,26.464,65.427,10.482,53.065,1.211,40.961-1.377,29.448.644c4.493,9.926,6.7,19.5-2.547,17.381C8.869,16.447.938,28.621.234,50.041-2.79,88.383,24.456,83.9,24.844,68.7c-16.7-10.787,1.932-27.4,2.693-10.124C38.169,63.573,39.267,53.787,35.768,36.725Z" transform="translate(0 0)"/>
        </g>
        <path id="Path_5619" data-name="Path 5619" class="cls-16" d="M188.336,187.5c-1.29,1.29-9.244,19.885-10.641,22.572-1.29,2.687-1.29,3.977-1.29,7.954,0,7.094,1.29,10.641-6.664,18.595S159.1,240.6,159.1,240.6s2.687-9.244,14.618-3.977-2.687,6.664-2.687,6.664a4.507,4.507,0,0,1-3.87-.537,4.3,4.3,0,0,1-1.4-2.042c-.86-2.687,2.472-7.739,4.729-10.748a11.244,11.244,0,0,1,5.052-3.869c3.44-1.4,8.384-2.472,7.524,2.795-1.29,7.954-17.2,11.931-18.6,15.908-1.29,3.977,5.185,7.4,0,14.618s-9.128,17.8-21.274,14.257" transform="translate(4.293 -10.754)"/>
        <path id="Path_5620" data-name="Path 5620" class="cls-14" d="M156.772,162.5l16.661,35.438a2.562,2.562,0,0,0,2.116,1.851c13.884,1.983,32.793-1.851,61.884-17.454l17.587-10.05a3.731,3.731,0,0,1,1.983-.529h9.388a2.559,2.559,0,0,1,2.248,1.322l3.174,5.289,9.256,1.322c3.967,0,3.967,7.934-2.645,5.289.793,4.893-1.058,7.008-5.289,6.611.132,5.421-3.041,5.818-7.934,3.967-.132,5.289-3.967,7.14-13.223,3.967-7.669-2.38-12.43-1.322-15.868,1.322-17.719,14.016-41.2,6.269-65.532,14.732-1.851.661-2.7,16.078-4.154,14.623l-8.2-8.2-31.074-28.429Z" transform="translate(-68.591 -13.625)"/>
        <path id="Path_5621" data-name="Path 5621" class="cls-17" d="M153.331,174.529s1.543,4.729-3.616,2.15a7.611,7.611,0,0,1-2.58-2.15,1.077,1.077,0,0,0-1.612-.107c-1.612,1.5-5.159,4.192-9.889,3.332" transform="translate(49.211 -9.757)"/>
        <path id="Path_5622" data-name="Path 5622" class="cls-18" d="M116.407,196.934h0a1.351,1.351,0,0,0,1.9,0l35.264-36.124a1.22,1.22,0,0,0,0-1.819h0a1.351,1.351,0,0,0-1.9,0l-35.264,36.124A1.218,1.218,0,0,0,116.407,196.934Z" transform="translate(74.541 -13.143)"/>
        <path id="Path_5623" data-name="Path 5623" class="cls-5" d="M82.48,58.9c14.3,27.933,25.135,46.275,44.351,64.617a1.236,1.236,0,0,0,1.639.168l31.873-13.375.717-1.031-.121-1.493L104.825,15.15C93.951-.835,82.48-5.042,64.6,6.737,41.664,21.545,14.45,48.57,0,68.763,0,68.763,32.7,109.974,82.48,58.9Z" transform="translate(170.179 233.731) rotate(88)"/>
        <path id="Path_5624" data-name="Path 5624" class="cls-7" d="M-15244.228-19359.975s-6.514-10.357-4.189,12.811,2.9,23.859,5.35,41.094,16.2,76.344,16.2,76.344v105.418h34.656l16.748-257.8Z" transform="translate(15279.587 19617.916)"/>
        <path id="Path_5625" data-name="Path 5625" class="cls-18" d="M-15219.587-19383.178c.2-.9,11.705-23.25,3.143-24.111s-20.221,6.859-31.852,11.447-13.244,4.416-16.477,1.982-11.811-17.031-11.811-17.031l-7.357-17.471-8.094,33.557,5.367,27.82s7.752,10.809,13.018,10.064,17.014-6.684,17.014-6.684l37.049-19.574Z" transform="translate(15389.675 19571.336)"/>
        <path id="Path_5626" data-name="Path 5626" class="cls-19" d="M-15314.212-19474s-3.682,7.678,10.707,34.23,13.291,11.885,17.338,29.506,12.846,29.541,10.734,47.176,3.922,32.875,4.059,48.074,15.619,25.8,15.639,33.848,12.447,3.354,12.447,3.354" transform="translate(15400.945 19540.057)"/>
        <g id="Group_6055" data-name="Group 6055" transform="translate(127.223 270.732) rotate(171)">
          <path id="Path_5572" data-name="Path 5572" class="cls-20" d="M.232,139.932c0,40.427,60.94,63.847,58.7,33.457,12.859,1.255,17.471-11.57,7.268-15.753a1.36,1.36,0,0,1-.14-2.509C90.124,124.877,110.777,19.47,91.629,4.415c-2.083-.258-27.363-19.976-70.976,26.07h0C10.7,39.634-1.865,120.833.232,139.932Z" transform="translate(0 0)"/>
          <path id="Path_5574" data-name="Path 5574" class="cls-21" d="M.033,114.464c1.477,19.026,17.541,22.277,29.82,7.931a24.612,24.612,0,0,0,3.04-4.665c7.718-15.862,20.491-51.263,19.789-76.69C52.566,38.124,46.465,3.849,26.818,0c-3.7,2.768-10.751,22.908-8.763,24.191l4.751,4.669,3.238,15.235C18.21,62.406-.9,93.236.033,114.464Z" transform="translate(21.977 22.409)"/>
        </g>
        <g id="Group_6056" data-name="Group 6056" transform="translate(130.58 522.6) rotate(180)">
          <path id="Path_4776-2" data-name="Path 4776" class="cls-11" d="M48.972,33.7,74.3,31.325a3.029,3.029,0,0,0,2.651-2.969V4.454A4.481,4.481,0,0,0,72.39,0L7.732,1.336c-10.31,0-10.31,17.815,0,20.785Z" transform="translate(0.71 0.277)"/>
          <rect id="Rectangle_2230-2" data-name="Rectangle 2230" class="cls-12" width="79.49" height="6.07" rx="3" transform="translate(0 0)"/>
          <g id="Group_5322-2" data-name="Group 5322" transform="matrix(-0.996, -0.087, 0.087, -0.996, 69.401, 27.567)">
            <g id="Group_5321-2" data-name="Group 5321" transform="matrix(0.999, 0.035, -0.035, 0.999, 8.024, 0)">
              <path id="Path_4220-2" data-name="Path 4220" class="cls-7" d="M42.624,1.45C35.913-.567,26.3-1.582,20.711,6.054c-3.127,3.717-6.592,5.825-10.282,6.022A13.759,13.759,0,0,1,1.593,9.152a1.1,1.1,0,0,0-1.342,0,.849.849,0,0,0,0,1.206,15.964,15.964,0,0,0,10.4,3.428c4.361-.2,8.272-2.505,11.735-6.725C30.542-4.091,48.219,5.376,49,5.779a1.088,1.088,0,0,0,1.342-.2.9.9,0,0,0-.337-1.207A43.954,43.954,0,0,0,42.624,1.45Z" transform="translate(0 0)"/>
            </g>
            <path id="Path_4786-2" data-name="Path 4786" class="cls-7" d="M5.995.014H5.4A5.04,5.04,0,0,0,.012,4.735v.6a5.07,5.07,0,0,0,4.692,5.433h.6A5.04,5.04,0,0,0,10.687,6.05v-.6A5.07,5.07,0,0,0,5.995.014Z" transform="translate(0 4.89)"/>
          </g>
        </g>
        <ellipse id="Ellipse_1266" data-name="Ellipse 1266" class="cls-18" cx="2.771" cy="2.771" rx="2.771" ry="2.771" transform="translate(83.96 62.362)"/>
        <path id="Path_5627" data-name="Path 5627" class="cls-22" d="M0,38.76S.725,8.227,5.131,0" transform="translate(81.995 261.97) rotate(-173)"/>
      </g>
    </g>
    <path id="Path_5767" data-name="Path 5767" class="cls-23" d="M47.836.011C27.352,24.646,60.928,84.337,15.392,120.729S40.253,182.476,36.207,235.55,161.521,177.731,121.8,87.859C111.469,64.492,112.319,11.495,106.112.011,89.138-31.4,68.321-24.625,47.836.011Z" transform="translate(344.607 280.613) rotate(90)"/>
    <g id="Group_6372" data-name="Group 6372" transform="translate(-311 -92)">
      <ellipse id="Ellipse_1308" data-name="Ellipse 1308" class="cls-24" cx="48.937" cy="10.873" rx="48.937" ry="10.873" transform="translate(986.602 800.1)"/>
      <g id="Group_6364" data-name="Group 6364" transform="translate(988.69 623.028)">
        <path id="Path_5763" data-name="Path 5763" class="cls-25" d="M0,18.732S5.009,8.644,17.034,0" transform="translate(44.399 45.107) rotate(-9)"/>
        <path id="Path_5761" data-name="Path 5761" class="cls-25" d="M0,0S21.069.46,36.592,10.994" transform="matrix(0.996, 0.087, -0.087, 0.996, 0.958, 27.531)"/>
        <path id="Path_5762" data-name="Path 5762" class="cls-25" d="M0,24.234S2.3,9.282,13,0" transform="translate(30.729 2.033) rotate(-9)"/>
      </g>
      <g id="Group_6371" data-name="Group 6371" transform="translate(957.999 598.057)">
        <path id="Path_5783" data-name="Path 5783" class="cls-26" d="M93.048,70.52c.478-17.7.12-33.962-13.154-26.308-4.783,3.588-9.567,2.392-9.567-3.588l1.2-13.154s0-20.329-16.742-3.588C44.019,35.841,44.019,47.8,46.411,58.562L57.173,82.479l14.35,13.154,21.525-7.175Z" transform="translate(8.251 2.733)"/>
        <path id="Path_5784" data-name="Path 5784" class="cls-27" d="M78.2,107.8" transform="translate(24.295 9.7)"/>
        <g class="cls-34" transform="matrix(1, 0, 0, 1, 14728, 17356.94)">
          <path id="Path_5781-2" data-name="Path 5781" class="cls-28" d="M71.893,75.594c-1.2,9.567,8.371,10.763,8.371,10.763l9.567-8.371-1.2,33.483c5.979,5.979-29.537,6.816-37.071,3.588-5.979-1.2-9.567-8.371-3.587-10.763l3.587-2.392c3.587-2.392,1.794-5.74-3.587-5.979-14.709.837-28.7-2.87-40.658-20.329-2.392-3.588-1.555-7.175,3.587-7.175,5.86-1.076,8.371-3.588,1.2-10.763-29.9-22.721,5.979-50.225,17.937-39.463,6.1,5.023,8.371,23.917,8.371,23.917S40.8,61.244,55.151,51.678c.359-.239.6-.478.957-.718C65.436,44.024,75.361,55.863,71.893,75.594Z" transform="translate(-14728.49 -17354.5)"/>
        </g>
        <g class="cls-33" transform="matrix(1, 0, 0, 1, 14728, 17356.94)">
          <path id="Path_5785-2" data-name="Path 5785" class="cls-29" d="M78.291,128.8c-10.4-12.317-17.937-33.483-8.371-47.833,7.175-11,14.35-18.416,21.525-7.175,3.587,3.707,9.567,3.588,9.567-3.588C98.5,43.781,98.979,21.658,120.145,30.746c5.5,2.75,8.371.478,8.371-7.175-7.175-29.9,37.071-31.092,27.5-1.2-9.088,13.633-9.447,18.3-5.979,19.133,22.96.478,16.981,15.785-2.75,37.19a4.8,4.8,0,0,0,.957,7.295c8.61,5.262,21.464,14.36-15.487,34.929C116.616,129.772,98.142,131.316,78.291,128.8Z" transform="translate(-14715.75 -17357.49)"/>
        </g>
        <path id="Path_5807" data-name="Path 5807" class="cls-18" d="M2.409,0H0C2.288,14.333,12.406,26.5,24.691,34.326c26.015,15.9,38.18,34.206,27.1,62.028h9.635c1.566-8.551,8.31-16.982,21.68-25.293,28.906-20.475,32.038-32.519,32.519-56.608l-2.409-2.409c.6,15.9-2.409,30.11-16.862,43.359L61.425,81.9c1.2-36.133-32.519-49.381-32.519-49.381S7.829,23.486,2.409,0Z" transform="translate(20.001 50.589)"/>
      </g>
      <g class="cls-32" transform="matrix(1, 0, 0, 1, 15686, 17955)">
        <path id="Path_5786-2" data-name="Path 5786" class="cls-30" d="M-10,0H57.913L52.48,69.543H-4.567Z" transform="translate(-14673.01 -17211.54)"/>
      </g>
      <path id="Path_5787" data-name="Path 5787" class="cls-31" d="M0,7.441S4.255.629,16.541,0" transform="translate(1077.338 705.017) rotate(20)"/>
      <path id="Path_5790" data-name="Path 5790" class="cls-31" d="M0,7.441S4.254.628,16.541,0" transform="matrix(0.899, 0.438, -0.438, 0.899, 1087.602, 697.198)"/>
      <path id="Path_5791" data-name="Path 5791" class="cls-31" d="M0,7.442S4.254.629,16.54,0" transform="translate(1095.407 688.348) rotate(31)"/>
      <path id="Path_5792" data-name="Path 5792" class="cls-31" d="M0,7.442S4.254.629,16.54,0" transform="translate(1097.049 679.363) rotate(25)"/>
      <path id="Path_5793" data-name="Path 5793" class="cls-31" d="M0,7.442S4.255.629,16.541,0" transform="translate(1098.977 670.226) rotate(21)"/>
      <path id="Path_5794" data-name="Path 5794" class="cls-31" d="M0,7.442S4.255.629,16.541,0" transform="translate(1098.978 661.855) rotate(21)"/>
      <path id="Path_5795" data-name="Path 5795" class="cls-31" d="M0,7.441S4.254.628,16.541,0" transform="matrix(1, 0.017, -0.017, 1, 1097.161, 654.861)"/>
      <path id="Path_5797" data-name="Path 5797" class="cls-31" d="M0,7.442S4.254.629,16.54,0" transform="translate(1059.493 691.391) rotate(81)"/>
      <path id="Path_5798" data-name="Path 5798" class="cls-31" d="M0,7.441S4.254.629,16.541,0" transform="translate(1065.601 685.025) rotate(87)"/>
      <path id="Path_5799" data-name="Path 5799" class="cls-31" d="M0,7.442S4.254.629,16.541,0" transform="translate(1072.575 678.466) rotate(91)"/>
      <path id="Path_5800" data-name="Path 5800" class="cls-31" d="M0,7.441S4.253.628,16.539,0" transform="translate(1081.918 675.411) rotate(98)"/>
      <path id="Path_5801" data-name="Path 5801" class="cls-31" d="M0,7.442S4.253.629,16.54,0" transform="translate(1085.442 661.594) rotate(89)"/>
      <path id="Path_5802" data-name="Path 5802" class="cls-31" d="M0,7.442S4.254.629,16.541,0" transform="translate(1089.461 648.639) rotate(92)"/>
      <path id="Path_5803" data-name="Path 5803" class="cls-31" d="M0,7.442S4.255.629,16.541,0" transform="translate(1101.887 643.675) rotate(115)"/>
      <path id="Path_5804" data-name="Path 5804" class="cls-31" d="M0,4.623S2.556.391,9.934,0" transform="translate(1027.538 625.87) rotate(61)"/>
      <path id="Path_5805" data-name="Path 5805" class="cls-31" d="M0,4.623S2.556.391,9.934,0" transform="translate(1025.703 631.561) rotate(61)"/>
      <path id="Path_5806" data-name="Path 5806" class="cls-31" d="M0,4.623S2.556.391,9.934,0" transform="translate(1023.869 637.251) rotate(61)"/>
    </g>
  </g>
</svg>
