<svg viewBox="0 0 100 100" xmlns="http://www.w3.org/2000/svg"><path d="M72.5,52Q56,54,59,71Q62,88,54.5,74Q47,60,31.5,67.5Q16,75,29.5,62.5Q43,50,43,47.5Q43,45,39.5,26.5Q36,8,47.5,15Q59,22,58.5,33Q58,44,73.5,47Q89,50,72.5,52Z" stroke="none" stroke-width="0" fill="#f5f5f5"></path><path d="M76,60Q78,70,69,75.5Q60,81,54,69Q48,57,37,62Q26,67,21.5,58.5Q17,50,30.5,47.5Q44,45,41,29Q38,13,48.5,18.5Q59,24,57.5,35Q56,46,65,48Q74,50,76,60Z" stroke="none" stroke-width="0" fill="#f4f4f4"></path><path d="M76,59.5Q76,69,70,81.5Q64,94,52,87.5Q40,81,34,73.5Q28,66,34,58Q40,50,42.5,48Q45,46,43,34.5Q41,23,50.5,21.5Q60,20,57.5,33Q55,46,65.5,48Q76,50,76,59.5Z" stroke="none" stroke-width="0" fill="#f3f3f3"></path><path d="M64,56.5Q68,63,65,74.5Q62,86,49,89Q36,92,29,81.5Q22,71,26,60.5Q30,50,21,36Q12,22,27.5,24.5Q43,27,53,19Q63,11,75,17Q87,23,73.5,36.5Q60,50,64,56.5Z" stroke="none" stroke-width="0" fill="#f2f2f2"></path><path d="M84,64Q89,78,72,71Q55,64,48.5,69.5Q42,75,38,68Q34,61,35.5,55.5Q37,50,30,40Q23,30,32,27Q41,24,49.5,24Q58,24,67.5,27Q77,30,78,40Q79,50,84,64Z" stroke="none" stroke-width="0" fill="#f1f1f1"></path><path d="M77.5,62Q83,74,73.5,84Q64,94,54,80.5Q44,67,35,67.5Q26,68,24,59Q22,50,27.5,44Q33,38,37,30.5Q41,23,48,28.5Q55,34,64,34Q73,34,72.5,42Q72,50,77.5,62Z" stroke="none" stroke-width="0" fill="#f0f0f0"></path><path d="M75,52.5Q57,55,56,59.5Q55,64,46.5,75Q38,86,26,81Q14,76,27,63Q40,50,37,44Q34,38,37.5,30Q41,22,48,28Q55,34,55.5,40Q56,46,74.5,48Q93,50,75,52.5Z" stroke="none" stroke-width="0" fill="#efefef"></path><path d="M77,60Q78,70,67,69Q56,68,51.5,63.5Q47,59,39.5,61Q32,63,29.5,56.5Q27,50,21,37.5Q15,25,29.5,28.5Q44,32,53.5,21.5Q63,11,76.5,16Q90,21,83,35.5Q76,50,77,60Z" stroke="none" stroke-width="0" fill="#eeeeee"></path><path d="M88.5,64.5Q90,79,75.5,81Q61,83,51.5,78Q42,73,28,74.5Q14,76,27.5,63Q41,50,36,43Q31,36,38,36Q45,36,52,28.5Q59,21,63,29Q67,37,77,43.5Q87,50,88.5,64.5Z" stroke="none" stroke-width="0" fill="#ededed"></path><path d="M89.5,61Q80,72,72.5,83.5Q65,95,56,77.5Q47,60,32,67Q17,74,20,62Q23,50,17,35.5Q11,21,29,31.5Q47,42,49.5,43Q52,44,53.5,45Q55,46,77,48Q99,50,89.5,61Z" stroke="none" stroke-width="0" fill="#ececec"></path><path d="M83,56Q67,62,61,64Q55,66,50,65.5Q45,65,35.5,66.5Q26,68,22.5,59Q19,50,30,46.5Q41,43,42.5,37.5Q44,32,53,23Q62,14,68,23Q74,32,86.5,41Q99,50,83,56Z" stroke="none" stroke-width="0" fill="#ebebeb"></path><path d="M76.5,57.5Q71,65,64.5,70Q58,75,51,71.5Q44,68,39.5,64.5Q35,61,29,55.5Q23,50,27.5,43.5Q32,37,38,33.5Q44,30,52.5,23Q61,16,69,23Q77,30,79.5,40Q82,50,76.5,57.5Z" stroke="none" stroke-width="0" fill="#eaeaea"></path><path d="M65.5,51.5Q55,53,59.5,73.5Q64,94,50,94Q36,94,34.5,78Q33,62,23,56Q13,50,17,39.5Q21,29,29.5,21.5Q38,14,47.5,21Q57,28,67.5,29Q78,30,77,40Q76,50,65.5,51.5Z" stroke="none" stroke-width="0" fill="#e9e9e9"></path><path d="M72.5,60Q78,70,67,69.5Q56,69,46,81.5Q36,94,25,85Q14,76,17,63Q20,50,22.5,40.5Q25,31,35.5,35Q46,39,54.5,25Q63,11,61.5,27Q60,43,63.5,46.5Q67,50,72.5,60Z" stroke="none" stroke-width="0" fill="#e8e8e8"></path><path d="M65,53Q58,56,57,61.5Q56,67,47,77Q38,87,34,76Q30,65,20.5,57.5Q11,50,15,38.5Q19,27,32,31.5Q45,36,50,35.5Q55,35,68,31.5Q81,28,76.5,39Q72,50,65,53Z" stroke="none" stroke-width="0" fill="#e7e7e7"></path><path d="M92.5,63.5Q87,77,76,87Q65,97,50.5,94.5Q36,92,24,85Q12,78,6.5,64Q1,50,20.5,46.5Q40,43,44,44Q48,45,56.5,24Q65,3,63,22.5Q61,42,79.5,46Q98,50,92.5,63.5Z" stroke="none" stroke-width="0" fill="#e6e6e6"></path><path d="M77.5,54Q61,58,61.5,72.5Q62,87,52,80.5Q42,74,29.5,74Q17,74,28,62Q39,50,39.5,46.5Q40,43,39.5,30Q39,17,47,25.5Q55,34,57,39Q59,44,76.5,47Q94,50,77.5,54Z" stroke="none" stroke-width="0" fill="#e5e5e5"></path><path d="M68.5,53Q59,56,60.5,71.5Q62,87,52,80.5Q42,74,38.5,67.5Q35,61,21,55.5Q7,50,17.5,42Q28,34,35,30Q42,26,47,35Q52,44,60.5,40Q69,36,73.5,43Q78,50,68.5,53Z" stroke="none" stroke-width="0" fill="#e4e4e4"></path><path d="M68,55.5Q65,61,64,75Q63,89,51.5,85.5Q40,82,30.5,76.5Q21,71,31.5,60.5Q42,50,32,40Q22,30,35,36Q48,42,50,43Q52,44,56.5,43Q61,42,66,46Q71,50,68,55.5Z" stroke="none" stroke-width="0" fill="#e3e3e3"></path><path d="M63,52Q55,54,58,69.5Q61,85,53,76Q45,67,42.5,62Q40,57,24,53.5Q8,50,19,43Q30,36,38,37.5Q46,39,50,38.5Q54,38,59,39Q64,40,67.5,45Q71,50,63,52Z" stroke="none" stroke-width="0" fill="#e2e2e2"></path><path d="M75.5,54.5Q63,59,64,77.5Q65,96,52.5,88Q40,80,39.5,69Q39,58,39,54Q39,50,29.5,39.5Q20,29,31.5,29.5Q43,30,48.5,34.5Q54,39,58,40Q62,41,75,45.5Q88,50,75.5,54.5Z" stroke="none" stroke-width="0" fill="#e1e1e1"></path><path d="M79.5,62.5Q84,75,69.5,70.5Q55,66,45,81Q35,96,32,80.5Q29,65,22,57.5Q15,50,24,43.5Q33,37,35.5,25Q38,13,51.5,8.5Q65,4,75,14Q85,24,80,37Q75,50,79.5,62.5Z" stroke="none" stroke-width="0" fill="#e0e0e0"></path><path d="M80,56Q66,62,64.5,75.5Q63,89,51.5,85.5Q40,82,35,73.5Q30,65,19,57.5Q8,50,20.5,44Q33,38,39.5,38Q46,38,53.5,27Q61,16,61.5,28.5Q62,41,78,45.5Q94,50,80,56Z" stroke="none" stroke-width="0" fill="#dfdfdf"></path><path d="M68,53.5Q60,57,60,69Q60,81,47.5,88Q35,95,30,81.5Q25,68,35,59Q45,50,36,41.5Q27,33,31,18Q35,3,48.5,8Q62,13,68.5,22.5Q75,32,75.5,41Q76,50,68,53.5Z" stroke="none" stroke-width="0" fill="#dedede"></path><path d="M59,52.5Q57,55,57.5,64Q58,73,49.5,75.5Q41,78,42.5,66Q44,54,42.5,52Q41,50,27.5,37Q14,24,27.5,23Q41,22,49.5,24Q58,26,69,27Q80,28,70.5,39Q61,50,59,52.5Z" stroke="none" stroke-width="0" fill="#dddddd"></path><path d="M67,58Q72,66,65.5,71.5Q59,77,51.5,72.5Q44,68,43,62Q42,56,21.5,53Q1,50,12,40.5Q23,31,29.5,18.5Q36,6,48.5,11Q61,16,59,30.5Q57,45,59.5,47.5Q62,50,67,58Z" stroke="none" stroke-width="0" fill="#dcdcdc"></path><path d="M91,63.5Q87,77,74.5,82Q62,87,49,89.5Q36,92,32.5,78.5Q29,65,22,57.5Q15,50,28,46.5Q41,43,43,38.5Q45,34,54,22.5Q63,11,63,25.5Q63,40,79,45Q95,50,91,63.5Z" stroke="none" stroke-width="0" fill="#dbdbdb"></path><path d="M67.5,60.5Q79,71,70,77Q61,83,48.5,87.5Q36,92,37.5,75Q39,58,25.5,54Q12,50,11,35.5Q10,21,26,22.5Q42,24,51,21.5Q60,19,75,20Q90,21,73,35.5Q56,50,67.5,60.5Z" stroke="none" stroke-width="0" fill="#dadada"></path><path d="M77,54Q61,58,60.5,68.5Q60,79,48.5,85Q37,91,23.5,85Q10,79,15,64.5Q20,50,31,47Q42,44,39.5,26.5Q37,9,49.5,11.5Q62,14,65,25.5Q68,37,80.5,43.5Q93,50,77,54Z" stroke="none" stroke-width="0" fill="#d9d9d9"></path><path d="M89,61Q80,72,67.5,69Q55,66,48.5,70.5Q42,75,27.5,76Q13,77,20.5,63.5Q28,50,31.5,44.5Q35,39,39.5,35Q44,31,51,28Q58,25,57.5,35Q57,45,77.5,47.5Q98,50,89,61Z" stroke="none" stroke-width="0" fill="#d8d8d8"></path><path d="M72.5,61.5Q82,73,68,67Q54,61,49.5,62.5Q45,64,37.5,64.5Q30,65,18,57.5Q6,50,11,37.5Q16,25,27.5,21Q39,17,46,29Q53,41,62.5,37.5Q72,34,67.5,42Q63,50,72.5,61.5Z" stroke="none" stroke-width="0" fill="#d7d7d7"></path><path d="M60.5,52.5Q57,55,54.5,55.5Q52,56,49,59.5Q46,63,28.5,70.5Q11,78,26,64Q41,50,40,46Q39,42,42.5,39.5Q46,37,52.5,29Q59,21,66,27Q73,33,68.5,41.5Q64,50,60.5,52.5Z" stroke="none" stroke-width="0" fill="#d6d6d6"></path><path d="M77.5,56.5Q68,63,65.5,76.5Q63,90,49,93Q35,96,39.5,75Q44,54,44,52Q44,50,30,37.5Q16,25,27.5,21Q39,17,51,12.5Q63,8,65,23Q67,38,77,44Q87,50,77.5,56.5Z" stroke="none" stroke-width="0" fill="#d5d5d5"></path><path d="M63.5,54.5Q63,59,59.5,63.5Q56,68,47,77Q38,86,40.5,70.5Q43,55,38,52.5Q33,50,33,44Q33,38,38.5,34.5Q44,31,52.5,23.5Q61,16,67,25Q73,34,68.5,42Q64,50,63.5,54.5Z" stroke="none" stroke-width="0" fill="#d4d4d4"></path><path d="M68,54.5Q63,59,58,59.5Q53,60,49,62Q45,64,33.5,67Q22,70,21.5,60Q21,50,22.5,40.5Q24,31,30.5,20.5Q37,10,45,25Q53,40,56.5,41.5Q60,43,66.5,46.5Q73,50,68,54.5Z" stroke="none" stroke-width="0" fill="#d3d3d3"></path><path d="M70,56.5Q68,63,66.5,79Q65,95,52,89Q39,83,33,75Q27,67,20,58.5Q13,50,14.5,38Q16,26,31.5,33.5Q47,41,53.5,30Q60,19,64,28Q68,37,70,43.5Q72,50,70,56.5Z" stroke="none" stroke-width="0" fill="#d2d2d2"></path><path d="M71,57.5Q71,65,65,71.5Q59,78,49,81.5Q39,85,36.5,73Q34,61,36.5,55.5Q39,50,28.5,38.5Q18,27,29,23Q40,19,51.5,14Q63,9,64.5,23.5Q66,38,68.5,44Q71,50,71,57.5Z" stroke="none" stroke-width="0" fill="#d1d1d1"></path><path d="M85.5,63Q85,76,73.5,82Q62,88,54,75.5Q46,63,34.5,66.5Q23,70,18,60Q13,50,17,39.5Q21,29,31.5,27Q42,25,47.5,33.5Q53,42,64,37Q75,32,80.5,41Q86,50,85.5,63Z" stroke="none" stroke-width="0" fill="#d0d0d0"></path><path d="M87.5,63Q86,76,71,72Q56,68,50.5,67Q45,66,39,64Q33,62,18.5,56Q4,50,18.5,44Q33,38,39.5,38.5Q46,39,54,26.5Q62,14,74.5,18.5Q87,23,88,36.5Q89,50,87.5,63Z" stroke="none" stroke-width="0" fill="#cfcfcf"></path><path d="M80.5,63.5Q87,77,73.5,79Q60,81,51.5,75.5Q43,70,40.5,64.5Q38,59,21,54.5Q4,50,20,45Q36,40,41.5,40Q47,40,56,21Q65,2,64.5,21Q64,40,69,45Q74,50,80.5,63.5Z" stroke="none" stroke-width="0" fill="#cecece"></path><path d="M77,52.5Q57,55,59.5,71.5Q62,88,49.5,89.5Q37,91,29.5,80.5Q22,70,27.5,60Q33,50,21.5,35.5Q10,21,25.5,22Q41,23,49.5,23.5Q58,24,64.5,29.5Q71,35,84,42.5Q97,50,77,52.5Z" stroke="none" stroke-width="0" fill="#cdcdcd"></path><path d="M68,54.5Q63,59,58,59.5Q53,60,49,62Q45,64,33.5,67Q22,70,21.5,60Q21,50,22.5,40.5Q24,31,30.5,20.5Q37,10,45,25Q53,40,56.5,41.5Q60,43,66.5,46.5Q73,50,68,54.5Z" stroke="none" stroke-width="0" fill="#cccccc"></path><path d="M70.5,55.5Q65,61,60.5,65.5Q56,70,49,72.5Q42,75,39,67.5Q36,60,36,55Q36,50,37.5,46Q39,42,38,25.5Q37,9,45.5,23Q54,37,57.5,39.5Q61,42,68.5,46Q76,50,70.5,55.5Z" stroke="none" stroke-width="0" fill="#cbcbcb"></path><path d="M87.5,63Q86,76,71,72Q56,68,50.5,67Q45,66,39,64Q33,62,18.5,56Q4,50,18.5,44Q33,38,39.5,38.5Q46,39,54,26.5Q62,14,74.5,18.5Q87,23,88,36.5Q89,50,87.5,63Z" stroke="none" stroke-width="0" fill="#cacaca"></path><path d="M71.5,62.5Q84,75,73,81.5Q62,88,51,84.5Q40,81,31,75.5Q22,70,22,60Q22,50,31.5,46.5Q41,43,42.5,37Q44,31,52.5,23.5Q61,16,73.5,20Q86,24,72.5,37Q59,50,71.5,62.5Z" stroke="none" stroke-width="0" fill="#c9c9c9"></path><path d="M91,63.5Q87,77,74.5,82Q62,87,49,89.5Q36,92,32.5,78.5Q29,65,22,57.5Q15,50,28,46.5Q41,43,43,38.5Q45,34,54,22.5Q63,11,63,25.5Q63,40,79,45Q95,50,91,63.5Z" stroke="none" stroke-width="0" fill="#c8c8c8"></path><path d="M92,62.5Q85,75,72,76Q59,77,48,84Q37,91,38,74.5Q39,58,25,54Q11,50,13,37.5Q15,25,28.5,26Q42,27,53.5,15.5Q65,4,70.5,17.5Q76,31,87.5,40.5Q99,50,92,62.5Z" stroke="none" stroke-width="0" fill="#c7c7c7"></path><path d="M80.5,56Q67,62,66,78.5Q65,95,56,77.5Q47,60,39,61.5Q31,63,32,56.5Q33,50,28,40Q23,30,32.5,28Q42,26,47.5,34Q53,42,57,42Q61,42,77.5,46Q94,50,80.5,56Z" stroke="none" stroke-width="0" fill="#c6c6c6"></path><path d="M88,64Q89,78,77,86.5Q65,95,54,83Q43,71,32.5,70.5Q22,70,14.5,60Q7,50,19,43Q31,36,33.5,22Q36,8,48.5,11.5Q61,15,65.5,25.5Q70,36,78.5,43Q87,50,88,64Z" stroke="none" stroke-width="0" fill="#c5c5c5"></path><path d="M76,58.5Q73,67,63,63Q53,59,46,72Q39,85,33.5,75.5Q28,66,33,58Q38,50,29,39Q20,28,34,36.5Q48,45,51.5,39Q55,33,54.5,40Q54,47,66.5,48.5Q79,50,76,58.5Z" stroke="none" stroke-width="0" fill="#c4c4c4"></path><path d="M68,55.5Q65,61,64,75Q63,89,51.5,85.5Q40,82,30.5,76.5Q21,71,31.5,60.5Q42,50,32,40Q22,30,35,36Q48,42,50,43Q52,44,56.5,43Q61,42,66,46Q71,50,68,55.5Z" stroke="none" stroke-width="0" fill="#c3c3c3"></path><path d="M82.5,60.5Q79,71,68,71.5Q57,72,47.5,80Q38,88,27,81.5Q16,75,14.5,62.5Q13,50,23,43.5Q33,37,35.5,25Q38,13,46.5,24.5Q55,36,68.5,31.5Q82,27,84,38.5Q86,50,82.5,60.5Z" stroke="none" stroke-width="0" fill="#c2c2c2"></path><path d="M73,59Q74,68,65.5,70Q57,72,49,75Q41,78,38.5,69Q36,60,23,55Q10,50,16,39.5Q22,29,30.5,22Q39,15,48.5,20.5Q58,26,62.5,32Q67,38,69.5,44Q72,50,73,59Z" stroke="none" stroke-width="0" fill="#c1c1c1"></path><path d="M55.5,52Q55,54,53.5,54.5Q52,55,46.5,66Q41,77,29,75.5Q17,74,20.5,62Q24,50,28,43.5Q32,37,39,37Q46,37,55.5,20.5Q65,4,60.5,24.5Q56,45,56,47.5Q56,50,55.5,52Z" stroke="none" stroke-width="0" fill="#c0c0c0"></path><path d="M70.5,59.5Q76,69,65.5,67.5Q55,66,46,78Q37,90,28.5,81Q20,72,26,61Q32,50,37,47Q42,44,43.5,40Q45,36,51,31.5Q57,27,64,31Q71,35,68,42.5Q65,50,70.5,59.5Z" stroke="none" stroke-width="0" fill="#bfbfbf"></path><path d="M72,52Q56,54,59.5,72Q63,90,55,75.5Q47,61,36,64.5Q25,68,30,59Q35,50,36,45Q37,40,36,21.5Q35,3,47,13Q59,23,63,30Q67,37,77.5,43.5Q88,50,72,52Z" stroke="none" stroke-width="0" fill="#bebebe"></path><path d="M60.5,55Q64,60,61,67.5Q58,75,51,72Q44,69,40,64.5Q36,60,24.5,55Q13,50,16.5,39Q20,28,28,17Q36,6,46.5,17.5Q57,29,69.5,28Q82,27,69.5,38.5Q57,50,60.5,55Z" stroke="none" stroke-width="0" fill="#bdbdbd"></path><path d="M80,56Q66,62,64,74Q62,86,50.5,84.5Q39,83,38.5,71Q38,59,24.5,54.5Q11,50,12,36.5Q13,23,26,19.5Q39,16,45.5,29.5Q52,43,56,42.5Q60,42,77,46Q94,50,80,56Z" stroke="none" stroke-width="0" fill="#bcbcbc"></path><path d="M68.5,52Q55,54,56,62Q57,70,49,73.5Q41,77,35,71Q29,65,26.5,57.5Q24,50,26.5,42.5Q29,35,32.5,21.5Q36,8,47,16.5Q58,25,56.5,36Q55,47,68.5,48.5Q82,50,68.5,52Z" stroke="none" stroke-width="0" fill="#bbbbbb"></path><path d="M86,59.5Q76,69,67,72Q58,75,49.5,76.5Q41,78,28,76.5Q15,75,20.5,62.5Q26,50,34.5,47.5Q43,45,43,37Q43,29,50.5,27.5Q58,26,57,36Q56,46,76,48Q96,50,86,59.5Z" stroke="none" stroke-width="0" fill="#bababa"></path><path d="M71,53Q59,56,58,64Q57,72,46.5,83Q36,94,30.5,81Q25,68,33.5,59Q42,50,38,44Q34,38,37.5,29.5Q41,21,47,30.5Q53,40,68,33Q83,26,83,38Q83,50,71,53Z" stroke="none" stroke-width="0" fill="#b9b9b9"></path><path d="M66.5,53.5Q59,57,59,67.5Q59,78,51.5,72.5Q44,67,43.5,61Q43,55,23.5,52.5Q4,50,17,43Q30,36,35,27Q40,18,48,25Q56,32,56,38.5Q56,45,65,47.5Q74,50,66.5,53.5Z" stroke="none" stroke-width="0" fill="#b8b8b8"></path><path d="M63.5,56Q66,62,65,77Q64,92,51,90Q38,88,40.5,71.5Q43,55,24,52.5Q5,50,9,36.5Q13,23,29,28Q45,33,52.5,25.5Q60,18,71.5,22Q83,26,72,38Q61,50,63.5,56Z" stroke="none" stroke-width="0" fill="#b7b7b7"></path><path d="M90,61.5Q82,73,72,80Q62,87,51,83.5Q40,80,34,73Q28,66,20,58Q12,50,21.5,43Q31,36,36.5,31Q42,26,51,22.5Q60,19,64.5,27.5Q69,36,83.5,43Q98,50,90,61.5Z" stroke="none" stroke-width="0" fill="#b6b6b6"></path><path d="M73.5,58Q73,66,66.5,73.5Q60,81,47.5,88Q35,95,38,76Q41,57,31,53.5Q21,50,18,37Q15,24,27.5,22Q40,20,51,16.5Q62,13,72,20Q82,27,78,38.5Q74,50,73.5,58Z" stroke="none" stroke-width="0" fill="#b5b5b5"></path><path d="M78,54Q61,58,63,77.5Q65,97,55,81.5Q45,66,39.5,63.5Q34,61,39.5,55.5Q45,50,43.5,47Q42,44,45,44.5Q48,45,56,25Q64,5,64.5,22Q65,39,80,44.5Q95,50,78,54Z" stroke="none" stroke-width="0" fill="#b4b4b4"></path><path d="M67.5,59Q75,68,69.5,80.5Q64,93,51,90.5Q38,88,30.5,79Q23,70,19,60Q15,50,16.5,38Q18,26,30.5,27.5Q43,29,51,26.5Q59,24,72,24.5Q85,25,72.5,37.5Q60,50,67.5,59Z" stroke="none" stroke-width="0" fill="#b3b3b3"></path><path d="M77,63Q86,76,75.5,85.5Q65,95,53,86Q41,77,38.5,69Q36,61,22,55.5Q8,50,24.5,46.5Q41,43,42,35.5Q43,28,52.5,20Q62,12,72,19.5Q82,27,75,38.5Q68,50,77,63Z" stroke="none" stroke-width="0" fill="#b2b2b2"></path><path d="M60,52.5Q57,55,58.5,68.5Q60,82,50,81Q40,80,39,69.5Q38,59,40,54.5Q42,50,38,44.5Q34,39,35,22Q36,5,44,24Q52,43,62.5,38Q73,33,68,41.5Q63,50,60,52.5Z" stroke="none" stroke-width="0" fill="#b1b1b1"></path><path d="M91,62.5Q85,75,69,66.5Q53,58,47.5,66Q42,74,36.5,69Q31,64,35,57Q39,50,40.5,47Q42,44,45,44Q48,44,56,26Q64,8,63,24.5Q62,41,79.5,45.5Q97,50,91,62.5Z" stroke="none" stroke-width="0" fill="#b0b0b0"></path><path d="M75,62.5Q85,75,70,70Q55,65,50,65Q45,65,31.5,69Q18,73,25.5,61.5Q33,50,22.5,36Q12,22,27,24Q42,26,52,19.5Q62,13,62,27Q62,41,63.5,45.5Q65,50,75,62.5Z" stroke="none" stroke-width="0" fill="#afafaf"></path><path d="M55.5,51.5Q55,53,55.5,60Q56,67,45.5,81Q35,95,37,76.5Q39,58,30,54Q21,50,17,36.5Q13,23,28.5,27.5Q44,32,49.5,34Q55,36,72,29Q89,22,72.5,36Q56,50,55.5,51.5Z" stroke="none" stroke-width="0" fill="#aeaeae"></path><path d="M75.5,54.5Q62,59,63,76.5Q64,94,51.5,88.5Q39,83,34.5,74Q30,65,32,57.5Q34,50,29,40.5Q24,31,34.5,33.5Q45,36,55,20.5Q65,5,61,25Q57,45,73,47.5Q89,50,75.5,54.5Z" stroke="none" stroke-width="0" fill="#adadad"></path><path d="M89.5,64Q89,78,74.5,80Q60,82,50,81Q40,80,25.5,79Q11,78,20.5,64Q30,50,36,47Q42,44,41,31.5Q40,19,49,22Q58,25,74,23Q90,21,90,35.5Q90,50,89.5,64Z" stroke="none" stroke-width="0" fill="#acacac"></path><path d="M79,60Q78,70,71.5,82.5Q65,95,55.5,78.5Q46,62,33,67Q20,72,11,61Q2,50,13.5,41Q25,32,32.5,25.5Q40,19,47,29Q54,39,61.5,37.5Q69,36,74.5,43Q80,50,79,60Z" stroke="none" stroke-width="0" fill="#ababab"></path><path d="M64,58Q72,66,62.5,62.5Q53,59,46,72Q39,85,28.5,79Q18,73,23,61.5Q28,50,37,48.5Q46,47,41,26.5Q36,6,48,12.5Q60,19,75,20Q90,21,73,35.5Q56,50,64,58Z" stroke="none" stroke-width="0" fill="#aaaaaa"></path><path d="M73.5,56.5Q68,63,62,66Q56,69,50.5,67.5Q45,66,43,61Q41,56,38,53Q35,50,30.5,41Q26,32,30.5,17.5Q35,3,48.5,8.5Q62,14,62.5,27Q63,40,71,45Q79,50,73.5,56.5Z" stroke="none" stroke-width="0" fill="#a9a9a9"></path><path d="M77.5,58.5Q74,67,65.5,68.5Q57,70,51,67.5Q45,65,43.5,60.5Q42,56,36.5,53Q31,50,31.5,43.5Q32,37,37.5,32Q43,27,49.5,29Q56,31,61,34.5Q66,38,73.5,44Q81,50,77.5,58.5Z" stroke="none" stroke-width="0" fill="#a8a8a8"></path><path d="M78.5,54Q61,58,63,77Q65,96,56,77.5Q47,59,32,66.5Q17,74,26,62Q35,50,24,36.5Q13,23,25,16.5Q37,10,47,19Q57,28,67.5,29Q78,30,87,40Q96,50,78.5,54Z" stroke="none" stroke-width="0" fill="#a7a7a7"></path><path d="M89,60.5Q79,71,69.5,75.5Q60,80,49,84Q38,88,31,78.5Q24,69,19,59.5Q14,50,21,42Q28,34,33.5,24.5Q39,15,50.5,13.5Q62,12,69.5,21Q77,30,88,40Q99,50,89,60.5Z" stroke="none" stroke-width="0" fill="#a6a6a6"></path><path d="M68.5,53.5Q59,57,60.5,71.5Q62,86,52.5,78.5Q43,71,34,69.5Q25,68,23.5,59Q22,50,24,41.5Q26,33,35,31.5Q44,30,50,31.5Q56,33,56.5,39Q57,45,67.5,47.5Q78,50,68.5,53.5Z" stroke="none" stroke-width="0" fill="#a5a5a5"></path><path d="M77,56.5Q67,63,60,61Q53,59,47.5,66.5Q42,74,40.5,66Q39,58,31.5,54Q24,50,29.5,44.5Q35,39,35.5,23.5Q36,8,50,8Q64,8,69.5,20Q75,32,81,41Q87,50,77,56.5Z" stroke="none" stroke-width="0" fill="#a4a4a4"></path><path d="M77,57.5Q71,65,68,81Q65,97,51,94Q37,91,35.5,76.5Q34,62,17.5,56Q1,50,20,46Q39,42,43.5,42.5Q48,43,51.5,38.5Q55,34,71,28.5Q87,23,85,36.5Q83,50,77,57.5Z" stroke="none" stroke-width="0" fill="#a3a3a3"></path><path d="M72,57.5Q70,65,67,79Q64,93,52,87.5Q40,82,33.5,74.5Q27,67,35.5,58.5Q44,50,41.5,46Q39,42,43,42Q47,42,56,23Q65,4,76.5,13Q88,22,81,36Q74,50,72,57.5Z" stroke="none" stroke-width="0" fill="#a2a2a2"></path><path d="M91,64Q89,78,73.5,76Q58,74,51,70.5Q44,67,36,66.5Q28,66,32.5,58Q37,50,38.5,46Q40,42,40.5,33Q41,24,51,19.5Q61,15,63,27Q65,39,79,44.5Q93,50,91,64Z" stroke="none" stroke-width="0" fill="#a1a1a1"></path><path d="M86.5,63.5Q87,77,75,83.5Q63,90,54.5,76Q46,62,40,62Q34,62,35,56Q36,50,36,45Q36,40,37.5,28Q39,16,51.5,12Q64,8,68.5,21Q73,34,79.5,42Q86,50,86.5,63.5Z" stroke="none" stroke-width="0" fill="#a0a0a0"></path><path d="M78.5,52.5Q57,55,60,73Q63,91,49.5,92Q36,93,26,83.5Q16,74,14,62Q12,50,22.5,43.5Q33,37,37.5,32Q42,27,48.5,31.5Q55,36,60.5,37Q66,38,83,44Q100,50,78.5,52.5Z" stroke="none" stroke-width="0" fill="#9f9f9f"></path><path d="M88,64Q89,78,71,69Q53,60,49.5,61Q46,62,39.5,62Q33,62,19.5,56Q6,50,14,40Q22,30,30.5,24Q39,18,45.5,30.5Q52,43,70,33Q88,23,87.5,36.5Q87,50,88,64Z" stroke="none" stroke-width="0" fill="#9e9e9e"></path><path d="M66,56Q66,62,64.5,75.5Q63,89,51,86Q39,83,30.5,77Q22,71,18,60.5Q14,50,14,37Q14,24,28,24.5Q42,25,53.5,14Q65,3,67.5,19Q70,35,68,42.5Q66,50,66,56Z" stroke="none" stroke-width="0" fill="#9d9d9d"></path><path d="M69.5,55Q64,60,58.5,59.5Q53,59,46.5,70Q40,81,42.5,67.5Q45,54,32.5,52Q20,50,22.5,41Q25,32,34.5,31Q44,30,54.5,17Q65,4,77.5,12.5Q90,21,82.5,35.5Q75,50,69.5,55Z" stroke="none" stroke-width="0" fill="#9c9c9c"></path><path d="M64,56.5Q68,63,65,74.5Q62,86,49,89Q36,92,29,81.5Q22,71,26,60.5Q30,50,21,36Q12,22,27.5,24.5Q43,27,53,19Q63,11,75,17Q87,23,73.5,36.5Q60,50,64,56.5Z" stroke="none" stroke-width="0" fill="#9b9b9b"></path><path d="M86.5,60Q77,70,66.5,68.5Q56,67,48.5,73Q41,79,26.5,78Q12,77,21,63.5Q30,50,20,35.5Q10,21,27,26Q44,31,54,19Q64,7,70,19Q76,31,86,40.5Q96,50,86.5,60Z" stroke="none" stroke-width="0" fill="#9a9a9a"></path><path d="M77,55.5Q66,61,59,58.5Q52,56,46,68.5Q40,81,35,72.5Q30,64,37.5,57Q45,50,37.5,42.5Q30,35,35,27.5Q40,20,50.5,18Q61,16,60.5,29.5Q60,43,74,46.5Q88,50,77,55.5Z" stroke="none" stroke-width="0" fill="#999999"></path><path d="M88,64Q88,78,74,79.5Q60,81,52.5,73.5Q45,66,31.5,69.5Q18,73,31,61.5Q44,50,28,36Q12,22,24,14Q36,6,47,15.5Q58,25,62.5,31.5Q67,38,77.5,44Q88,50,88,64Z" stroke="none" stroke-width="0" fill="#989898"></path><path d="M64.5,56Q66,62,59,59Q52,56,47,65Q42,74,32.5,71.5Q23,69,15.5,59.5Q8,50,10.5,36.5Q13,23,29.5,30Q46,37,55,22Q64,7,75,15.5Q86,24,74.5,37Q63,50,64.5,56Z" stroke="none" stroke-width="0" fill="#979797"></path><path d="M63.5,51.5Q54,53,54.5,60Q55,67,48,72Q41,77,29,75.5Q17,74,29.5,62Q42,50,27.5,36.5Q13,23,30,31Q47,39,52,33.5Q57,28,62,33Q67,38,70,44Q73,50,63.5,51.5Z" stroke="none" stroke-width="0" fill="#969696"></path><path d="M82.5,59.5Q77,69,69,77Q61,85,52,77.5Q43,70,30.5,71.5Q18,73,27.5,61.5Q37,50,35.5,44Q34,38,37.5,31Q41,24,48.5,28Q56,32,68.5,30Q81,28,84.5,39Q88,50,82.5,59.5Z" stroke="none" stroke-width="0" fill="#959595"></path><path d="M79.5,64Q89,78,75,81.5Q61,85,52.5,76Q44,67,33,69Q22,71,27.5,60.5Q33,50,39.5,48.5Q46,47,41,26.5Q36,6,49.5,7.5Q63,9,63,25Q63,41,66.5,45.5Q70,50,79.5,64Z" stroke="none" stroke-width="0" fill="#949494"></path><path d="M77.5,62.5Q85,75,70,69.5Q55,64,48,70.5Q41,77,29,75.5Q17,74,15.5,62Q14,50,18.5,40Q23,30,33.5,31.5Q44,33,50.5,30.5Q57,28,64.5,31Q72,34,71,42Q70,50,77.5,62.5Z" stroke="none" stroke-width="0" fill="#939393"></path><path d="M66,52Q55,54,60,75.5Q65,97,51,93Q37,89,33.5,77Q30,65,16,57.5Q2,50,17.5,44Q33,38,39,36.5Q45,35,50,35.5Q55,36,71.5,29.5Q88,23,82.5,36.5Q77,50,66,52Z" stroke="none" stroke-width="0" fill="#929292"></path><path d="M78,52Q56,54,57,64.5Q58,75,50,74.5Q42,74,32.5,72Q23,70,29,60Q35,50,36.5,45.5Q38,41,37.5,26Q37,11,48,16Q59,21,64,28.5Q69,36,84.5,43Q100,50,78,52Z" stroke="none" stroke-width="0" fill="#919191"></path><path d="M72,55Q63,60,63,75.5Q63,91,51.5,85.5Q40,80,32,74.5Q24,69,23,59.5Q22,50,17,36.5Q12,23,25.5,20Q39,17,48.5,21.5Q58,26,70.5,26Q83,26,82,38Q81,50,72,55Z" stroke="none" stroke-width="0" fill="#909090"></path></svg>