<svg xmlns="http://www.w3.org/2000/svg" xmlns:xlink="http://www.w3.org/1999/xlink" viewBox="0 0 400 400"><defs><style>.a{fill:url(#a);}.b{opacity:0.5;}.c{fill:#1f364c;}.d{fill:#21e2e2;}.e{fill:#ffbc98;}.f{fill:#288ed9;}.g{fill:#137fcf;}.h{fill:#71939e;opacity:0.15;}.i{fill:#00aeef;}.j,.k,.l,.q,.v,.x{fill:none;}.k,.l{stroke:#288ed9;}.k{stroke-width:0.3px;}.l,.q{stroke-linecap:round;stroke-miterlimit:10;stroke-width:1.2px;}.m{fill:url(#b);}.n{fill:#024679;}.o,.s{fill:#005b9f;}.o{opacity:0.57;isolation:isolate;}.p{fill:#043c67;}.q{stroke:#1f364c;}.r{fill:#166eaf;}.t{fill:#0e71bb;}.u{fill:#52acea;}.v{stroke:#ffbc98;}.v,.x{stroke-width:0.6px;}.w{fill:#80c9ff;}.x{stroke:#21e2e2;}.y{fill:#d6eeff;}.z{fill:#fff;}</style><linearGradient id="a" x1="1.2" y1="400.35" x2="1.19" y2="400.98" gradientTransform="matrix(740.56, 0, 0, -612.51, -677.44, 245617.49)" gradientUnits="userSpaceOnUse"><stop offset="0" stop-color="#c6e6ff"/><stop offset="1" stop-color="#fff"/></linearGradient><linearGradient id="b" x1="0.97" y1="403.11" x2="0.97" y2="402.32" gradientTransform="matrix(531, 0, 0, -95, -352.26, 38535.44)" gradientUnits="userSpaceOnUse"><stop offset="0" stop-color="#288ed9"/><stop offset="1" stop-color="#137fcf" stop-opacity="0.05"/></linearGradient></defs><title>what-is-cloud-server</title><path class="a" d="M206.2,68c60.3,38.5,129.4,55.8,129.4,55.8s76.2,11.6,48.2,98.2-31.7,117.7-75.6,119.9c-41.6,1.2-64.9-16-106.1-13-36.2,2.8-61.1,19.1-121.5-4.7C-16.2,281.4-9-67.8,206.2,68Z"/><g class="b"><rect class="c" x="98.8" y="165.7" width="33.7" height="1.19"/><rect class="c" x="98.8" y="168.9" width="33.7" height="1.19"/><rect class="c" x="98.8" y="172.1" width="33.7" height="1.19"/><rect class="c" x="98.8" y="175.3" width="33.7" height="1.19"/><rect class="c" x="98.8" y="178.4" width="33.7" height="1.19"/></g><rect class="d" x="83.4" y="202.8" width="2.7" height="2.82" rx="1.4"/><rect class="e" x="87.3" y="202.8" width="2.7" height="2.82" rx="1.4"/><rect class="f" x="83.4" y="206.5" width="2.7" height="2.82" rx="1.4"/><rect class="g" x="87.3" y="206.5" width="2.7" height="2.82" rx="1.4"/><rect class="f" x="91.2" y="206.5" width="2.7" height="2.82" rx="1.4"/><rect class="f" x="91.2" y="202.8" width="2.7" height="2.82" rx="1.4"/><rect class="d" x="83.4" y="210.1" width="2.7" height="2.82" rx="1.4"/><rect class="f" x="87.3" y="210.1" width="2.7" height="2.82" rx="1.4"/><rect class="f" x="83.4" y="213.8" width="2.7" height="2.82" rx="1.4"/><rect class="g" x="87.3" y="213.8" width="2.7" height="2.82" rx="1.4"/><rect class="f" x="91.2" y="213.8" width="2.7" height="2.82" rx="1.4"/><rect class="f" x="91.2" y="210.1" width="2.7" height="2.82" rx="1.4"/><path class="h" d="M321.5,137.3a34.3,34.3,0,0,0-14.9,3.4,55.1,55.1,0,0,0-74.8-47.9,62.4,62.4,0,0,0-120.3,20.7h0a46.5,46.5,0,1,0,0,92.9h210a34.6,34.6,0,1,0,0-69.1ZM204.3,171.8H201l2.6-1.3C203.8,171,204.1,171.4,204.3,171.8Z"/><path class="i" d="M308.9,125.9a33.6,33.6,0,0,0-14.9,3.4,55,55,0,0,0-54.9-51.6,53,53,0,0,0-19.9,3.8A62.3,62.3,0,0,0,98.9,102.1h-.1a46.5,46.5,0,0,0,0,92.9H308.9a34.6,34.6,0,0,0,0-69.1ZM191.7,160.5h-3.3l2.5-1.3Z"/><rect class="g" x="30.7" y="252.5" width="13.1" height="13.09" rx="2"/><path class="f" d="M37.4,256.1a3.2,3.2,0,1,1,0,6.3,3.2,3.2,0,1,1,0-6.3Z"/><circle class="j" cx="37.4" cy="259.2" r="4.4"/><circle class="k" cx="37.4" cy="259.2" r="4.2"/><path class="l" d="M79.9,245.8H55.7c-3.3,0-4.8,1.8-4.7,5,0,.8.1,14.2.1,16.8s-2,4.1-5.3,4.1H41.2c-2.4,0-3.9-1.6-3.9-3.4v-6.1"/><ellipse class="m" cx="160.4" cy="296.7" rx="105.2" ry="18.8"/><rect class="n" x="78.2" y="157" width="74.5" height="139.43" rx="4"/><path class="o" d="M82.6,157h35.6V296.5H82.6a4,4,0,0,1-4-4V161A4,4,0,0,1,82.6,157Z"/><g class="b"><rect class="c" x="98.4" y="277.5" width="33.7" height="1.19"/><rect class="c" x="98.4" y="280.6" width="33.7" height="1.19"/><rect class="c" x="98.4" y="283.8" width="33.7" height="1.19"/><rect class="c" x="98.4" y="287" width="33.7" height="1.19"/></g><rect class="p" x="98.4" y="188.7" width="39.6" height="73.28"/><path class="q" d="M118.1,195.8v8.6a2.4,2.4,0,0,0,2.7,2.7h2.5c1.7,0,2.2,1.1,2.2,2.9V261"/><path class="q" d="M115.4,198.3V202a2.4,2.4,0,0,0,2.7,2.7h2.5c1.7,0,2.2,1,2.2,2.9V261"/><path class="q" d="M123,194.4v7c0,1.5.8,2.2,2.3,2.2h4.1c1.5,0,1.9.9,1.9,2.5v2.7"/><path class="q" d="M137.8,193.8H120.7a2.3,2.3,0,0,0-2.6,2.6V199"/><path class="q" d="M115.4,199.3v-2.5c.1-1.7-.7-2.7-2.6-2.7H99.4"/><path class="q" d="M104.8,194.1v34.2a2.3,2.3,0,0,0,2.6,2.6H110c1.7,0,2.2,1.1,2.2,2.9v27.1h0"/><path class="q" d="M107.3,194.1v11.1a2.3,2.3,0,0,0,2.7,2.6h2.5c1.7,0,2.2,1.1,2.2,2.9v23.2"/><path class="q" d="M109.8,194.4v43.4c0,1.9.9,2.7,2.6,2.7H115c1.6,0,2.1,1.1,2.1,2.9V261"/><rect class="r" x="85.1" y="221" width="7.1" height="26.81" rx="3.5"/><path class="s" d="M88.2,239.4V230a1.7,1.7,0,0,1,1.7-1.7h0a1.8,1.8,0,0,1,1.7,1.7v9.4a1.8,1.8,0,0,1-1.7,1.7h0A1.7,1.7,0,0,1,88.2,239.4Z"/><path class="d" d="M110.6,270.8h0a1.3,1.3,0,0,1,1.3,1.4h0a1.3,1.3,0,0,1-1.3,1.3h0a1.3,1.3,0,0,1-1.3-1.3h0A1.3,1.3,0,0,1,110.6,270.8Z"/><path class="e" d="M114.4,270.8h0a1.3,1.3,0,0,1,1.3,1.4h0a1.3,1.3,0,0,1-1.3,1.3h0a1.3,1.3,0,0,1-1.3-1.3h0A1.3,1.3,0,0,1,114.4,270.8Z"/><path class="f" d="M118.1,270.8h0a1.3,1.3,0,0,1,1.3,1.4h0a1.3,1.3,0,0,1-1.3,1.3h0a1.3,1.3,0,0,1-1.3-1.3h0A1.3,1.3,0,0,1,118.1,270.8Z"/><path class="g" d="M121.9,270.8h0a1.3,1.3,0,0,1,1.3,1.4h0a1.3,1.3,0,0,1-1.3,1.3h0a1.3,1.3,0,0,1-1.3-1.3h0A1.3,1.3,0,0,1,121.9,270.8Z"/><path class="f" d="M125.6,270.8h0a1.3,1.3,0,0,1,1.3,1.4h0a1.3,1.3,0,0,1-1.3,1.3h0a1.3,1.3,0,0,1-1.3-1.3h0A1.3,1.3,0,0,1,125.6,270.8Z"/><rect class="c" x="134.4" y="195" width="100" height="7.77"/><path class="t" d="M133.3,174H235.6c2,0,3.7,1.2,3.7,2.6v17c0,1.5-1.7,2.7-3.7,2.7H133.3c-2,0-3.6-1.2-3.6-2.7v-17C129.7,175.2,131.3,174,133.3,174Z"/><path class="s" d="M131.3,174h35.4v22.3H131.3a1.6,1.6,0,0,1-1.6-1.6V175.6A1.6,1.6,0,0,1,131.3,174Z"/><path class="u" d="M198.7,182h0a1.2,1.2,0,0,1,1.2,1.1h0a1.2,1.2,0,0,1-1.2,1.2h0a1.2,1.2,0,0,1-1.2-1.2h0A1.2,1.2,0,0,1,198.7,182Z"/><path class="d" d="M201.5,186.6h0a1.1,1.1,0,0,1,1.1,1.2h0a1.1,1.1,0,0,1-1.1,1.1h0a1.1,1.1,0,0,1-1.2-1.1h0A1.2,1.2,0,0,1,201.5,186.6Z"/><path class="u" d="M203.3,182h0a1.1,1.1,0,0,1,1.2,1.1h0a1.2,1.2,0,0,1-1.2,1.2h0a1.1,1.1,0,0,1-1.1-1.2h0A1.1,1.1,0,0,1,203.3,182Z"/><path class="u" d="M206.1,186.6h0a1.2,1.2,0,0,1,1.2,1.2h0a1.1,1.1,0,0,1-1.2,1.1h0a1.1,1.1,0,0,1-1.1-1.1h0A1.1,1.1,0,0,1,206.1,186.6Z"/><path class="e" d="M208,182h0a1.1,1.1,0,0,1,1.1,1.1h0a1.1,1.1,0,0,1-1.1,1.2h0a1.2,1.2,0,0,1-1.2-1.2h0A1.1,1.1,0,0,1,208,182Z"/><path class="u" d="M210.8,186.6h0a1.1,1.1,0,0,1,1.1,1.2h0a1.1,1.1,0,0,1-1.1,1.1h0a1.1,1.1,0,0,1-1.2-1.1h0A1.2,1.2,0,0,1,210.8,186.6Z"/><path class="u" d="M212.6,182h0a1.1,1.1,0,0,1,1.2,1.1h0a1.2,1.2,0,0,1-1.2,1.2h0a1.1,1.1,0,0,1-1.1-1.2h0A1.1,1.1,0,0,1,212.6,182Z"/><path class="d" d="M215.4,186.6h0a1.2,1.2,0,0,1,1.2,1.2h0a1.2,1.2,0,0,1-1.2,1.1h0a1.2,1.2,0,0,1-1.2-1.1h0A1.2,1.2,0,0,1,215.4,186.6Z"/><path class="u" d="M217.3,182h0a1.1,1.1,0,0,1,1.1,1.1h0a1.1,1.1,0,0,1-1.1,1.2h0a1.2,1.2,0,0,1-1.2-1.2h0A1.1,1.1,0,0,1,217.3,182Z"/><path class="u" d="M220,186.6h0a1.2,1.2,0,0,1,1.2,1.2h0a1.1,1.1,0,0,1-1.2,1.1h0a1.1,1.1,0,0,1-1.1-1.1h0A1.1,1.1,0,0,1,220,186.6Z"/><circle class="j" cx="228.2" cy="185.3" r="2"/><circle class="v" cx="228.2" cy="185.3" r="1.6"/><path class="u" d="M193.3,181.1h0a.9.9,0,0,1,.9.9v6.5a.9.9,0,0,1-.9.9h0a.9.9,0,0,1-.9-.9V182A.9.9,0,0,1,193.3,181.1Z"/><path class="u" d="M189.8,181.1h0a.9.9,0,0,1,.9.9v6.5a.9.9,0,0,1-.9.9h0a.9.9,0,0,1-.9-.9V182A.9.9,0,0,1,189.8,181.1Z"/><rect class="s" x="172.2" y="181.1" width="14" height="3.51"/><rect class="s" x="172.2" y="185.9" width="14" height="3.51"/><path class="e" d="M192.4,182.8h1.8v5.7a.9.9,0,0,1-.9.9h0a.9.9,0,0,1-.9-.9v-5.7Z"/><path class="d" d="M188.9,186.2h1.8v2.3a.9.9,0,0,1-.9.9h0a.9.9,0,0,1-.9-.9h0v-2.3Z"/><rect class="w" x="172.2" y="181.1" width="3.5" height="3.51"/><rect class="w" x="172.2" y="185.9" width="3.5" height="3.51"/><rect class="f" x="177.5" y="182.4" width="7" height="0.88"/><rect class="f" x="177.5" y="187.2" width="7" height="0.88"/><circle class="j" cx="228.2" cy="185.3" r="4.2"/><circle class="x" cx="228.2" cy="185.3" r="3.8"/><path class="f" d="M156.7,188.2h0a1.5,1.5,0,0,1,1.4,1.5h0a1.5,1.5,0,0,1-1.4,1.5h0a1.5,1.5,0,0,1-1.5-1.5h0A1.5,1.5,0,0,1,156.7,188.2Z"/><path class="g" d="M156.8,179.8h0a.6.6,0,0,1,.6.6v5.7a.7.7,0,0,1-.6.7h0a.7.7,0,0,1-.7-.7v-5.7A.7.7,0,0,1,156.8,179.8Z"/><path class="y" d="M152.3,188.2h0a1.5,1.5,0,0,1,1.4,1.5h0a1.5,1.5,0,0,1-1.4,1.5h0a1.5,1.5,0,0,1-1.5-1.5h0A1.5,1.5,0,0,1,152.3,188.2Z"/><path class="z" d="M152.4,182.4h0a.7.7,0,0,1,.6.7v3a.7.7,0,0,1-.6.7h0a.7.7,0,0,1-.7-.7v-3A.7.7,0,0,1,152.4,182.4Z"/><path class="f" d="M147.9,188.2h0a1.5,1.5,0,0,1,1.5,1.5h0a1.5,1.5,0,0,1-1.5,1.5h0a1.5,1.5,0,0,1-1.4-1.5h0A1.5,1.5,0,0,1,147.9,188.2Z"/><path class="g" d="M148,178.8h0a.6.6,0,0,1,.6.6v6.7c0,.4-.2.7-.6.7h0a.7.7,0,0,1-.7-.7v-6.7A.7.7,0,0,1,148,178.8Z"/><path class="e" d="M143.5,188.2h0a1.5,1.5,0,0,1,1.5,1.5h0a1.5,1.5,0,0,1-1.5,1.5h0a1.5,1.5,0,0,1-1.4-1.5h0A1.5,1.5,0,0,1,143.5,188.2Z"/><path class="e" d="M143.6,180.4h0a.7.7,0,0,1,.7.7v5a.7.7,0,0,1-.7.7h0a.7.7,0,0,1-.7-.7v-5A.7.7,0,0,1,143.6,180.4Z"/><path class="d" d="M139.1,188.2h0a1.5,1.5,0,0,1,1.5,1.5h0a1.5,1.5,0,0,1-1.5,1.5h0a1.5,1.5,0,0,1-1.4-1.5h0A1.5,1.5,0,0,1,139.1,188.2Z"/><path class="d" d="M139.2,183.3h0a.7.7,0,0,1,.7.6v2.2a.7.7,0,0,1-.7.7h0a.7.7,0,0,1-.6-.7v-2.2A.6.6,0,0,1,139.2,183.3Z"/><rect class="c" x="134.4" y="221.5" width="100" height="7.77"/><path class="t" d="M133.3,200.5H235.6c2,0,3.7,1.2,3.7,2.7v17c0,1.4-1.7,2.6-3.7,2.6H133.3c-2,0-3.6-1.2-3.6-2.6v-17C129.7,201.7,131.3,200.5,133.3,200.5Z"/><path class="s" d="M131.3,200.5h35.4v22.3H131.3a1.6,1.6,0,0,1-1.6-1.6V202.1A1.6,1.6,0,0,1,131.3,200.5Z"/><path class="u" d="M198.7,208.5h0a1.2,1.2,0,0,1,1.2,1.2h0a1.2,1.2,0,0,1-1.2,1.1h0a1.2,1.2,0,0,1-1.2-1.1h0A1.2,1.2,0,0,1,198.7,208.5Z"/><path class="d" d="M201.5,213.1h0a1.2,1.2,0,0,1,1.1,1.2h0a1.2,1.2,0,0,1-1.1,1.2h0a1.2,1.2,0,0,1-1.2-1.2h0A1.2,1.2,0,0,1,201.5,213.1Z"/><path class="u" d="M203.3,208.5h0a1.2,1.2,0,0,1,1.2,1.2h0a1.1,1.1,0,0,1-1.2,1.1h0a1.1,1.1,0,0,1-1.1-1.1h0A1.1,1.1,0,0,1,203.3,208.5Z"/><path class="u" d="M206.1,213.1h0a1.2,1.2,0,0,1,1.2,1.2h0a1.2,1.2,0,0,1-1.2,1.2h0a1.2,1.2,0,0,1-1.1-1.2h0A1.2,1.2,0,0,1,206.1,213.1Z"/><path class="e" d="M208,208.5h0a1.1,1.1,0,0,1,1.1,1.2h0a1.1,1.1,0,0,1-1.1,1.1h0a1.1,1.1,0,0,1-1.2-1.1h0A1.2,1.2,0,0,1,208,208.5Z"/><path class="u" d="M210.8,213.1h0a1.2,1.2,0,0,1,1.1,1.2h0a1.2,1.2,0,0,1-1.1,1.2h0a1.2,1.2,0,0,1-1.2-1.2h0A1.2,1.2,0,0,1,210.8,213.1Z"/><path class="u" d="M212.6,208.5h0a1.2,1.2,0,0,1,1.2,1.2h0a1.1,1.1,0,0,1-1.2,1.1h0a1.1,1.1,0,0,1-1.1-1.1h0A1.1,1.1,0,0,1,212.6,208.5Z"/><path class="d" d="M215.4,213.1h0a1.3,1.3,0,0,1,1.2,1.2h0a1.3,1.3,0,0,1-1.2,1.2h0a1.3,1.3,0,0,1-1.2-1.2h0A1.3,1.3,0,0,1,215.4,213.1Z"/><path class="u" d="M217.3,208.5h0a1.1,1.1,0,0,1,1.1,1.2h0a1.1,1.1,0,0,1-1.1,1.1h0a1.1,1.1,0,0,1-1.2-1.1h0A1.2,1.2,0,0,1,217.3,208.5Z"/><path class="u" d="M220,213.1h0a1.2,1.2,0,0,1,1.2,1.2h0a1.2,1.2,0,0,1-1.2,1.2h0a1.2,1.2,0,0,1-1.1-1.2h0A1.2,1.2,0,0,1,220,213.1Z"/><circle class="j" cx="228.2" cy="211.8" r="2"/><circle class="v" cx="228.2" cy="211.8" r="1.6"/><path class="u" d="M193.3,207.6h0a.9.9,0,0,1,.9.9v6.6a.9.9,0,0,1-.9.9h0a.9.9,0,0,1-.9-.9v-6.6A.9.9,0,0,1,193.3,207.6Z"/><path class="u" d="M189.8,207.6h0a.9.9,0,0,1,.9.9v6.6a.9.9,0,0,1-.9.9h0a.9.9,0,0,1-.9-.9v-6.6A.9.9,0,0,1,189.8,207.6Z"/><rect class="s" x="172.2" y="207.6" width="14" height="3.51"/><rect class="s" x="172.2" y="212.5" width="14" height="3.51"/><path class="e" d="M192.4,209.4h1.8v5.7a.9.9,0,0,1-.9.9h0a.9.9,0,0,1-.9-.9v-5.7Z"/><path class="d" d="M188.9,212.7h1.8v2.4a.9.9,0,0,1-.9.9h0a.9.9,0,0,1-.9-.9h0v-2.4Z"/><rect class="w" x="172.2" y="207.6" width="3.5" height="3.51"/><rect class="w" x="172.2" y="212.5" width="3.5" height="3.51"/><rect class="f" x="177.5" y="208.9" width="7" height="0.88"/><rect class="f" x="177.5" y="213.8" width="7" height="0.88"/><circle class="j" cx="228.2" cy="211.8" r="4.2"/><circle class="x" cx="228.2" cy="211.8" r="3.8"/><path class="f" d="M156.7,215.2h0a1.4,1.4,0,0,1,1.4,1.4h0a1.4,1.4,0,0,1-1.4,1.5h0a1.5,1.5,0,0,1-1.5-1.5h0A1.5,1.5,0,0,1,156.7,215.2Z"/><path class="g" d="M156.8,206.7h0a.7.7,0,0,1,.6.7v5.7a.6.6,0,0,1-.6.6h0a.7.7,0,0,1-.7-.6v-5.7A.7.7,0,0,1,156.8,206.7Z"/><path class="y" d="M152.3,215.2h0a1.4,1.4,0,0,1,1.4,1.4h0a1.4,1.4,0,0,1-1.4,1.5h0a1.5,1.5,0,0,1-1.5-1.5h0A1.5,1.5,0,0,1,152.3,215.2Z"/><path class="z" d="M152.4,209.3h0a.7.7,0,0,1,.6.7v3.1a.6.6,0,0,1-.6.6h0a.7.7,0,0,1-.7-.6V210A.7.7,0,0,1,152.4,209.3Z"/><path class="f" d="M147.9,215.2h0a1.5,1.5,0,0,1,1.5,1.4h0a1.5,1.5,0,0,1-1.5,1.5h0a1.4,1.4,0,0,1-1.4-1.5h0A1.4,1.4,0,0,1,147.9,215.2Z"/><path class="g" d="M148,205.7h0c.4,0,.6.3.6.7v6.7a.6.6,0,0,1-.6.6h0a.7.7,0,0,1-.7-.6v-6.7A.7.7,0,0,1,148,205.7Z"/><path class="e" d="M143.5,215.2h0a1.5,1.5,0,0,1,1.5,1.4h0a1.5,1.5,0,0,1-1.5,1.5h0a1.4,1.4,0,0,1-1.4-1.5h0A1.4,1.4,0,0,1,143.5,215.2Z"/><path class="e" d="M143.6,207.4h0a.7.7,0,0,1,.7.6v5.1a.7.7,0,0,1-.7.6h0a.7.7,0,0,1-.7-.6V208A.7.7,0,0,1,143.6,207.4Z"/><path class="d" d="M139.1,215.2h0a1.5,1.5,0,0,1,1.5,1.4h0a1.5,1.5,0,0,1-1.5,1.5h0a1.4,1.4,0,0,1-1.4-1.5h0A1.4,1.4,0,0,1,139.1,215.2Z"/><path class="d" d="M139.2,210.2h0a.7.7,0,0,1,.7.7v2.2a.7.7,0,0,1-.7.6h0a.6.6,0,0,1-.6-.6v-2.2A.7.7,0,0,1,139.2,210.2Z"/><rect class="c" x="134.4" y="248.1" width="100" height="7.77"/><path class="t" d="M133.3,227.1H235.6c2,0,3.7,1.2,3.7,2.6v17c0,1.5-1.7,2.7-3.7,2.7H133.3c-2,0-3.6-1.2-3.6-2.7v-17C129.7,228.3,131.3,227.1,133.3,227.1Z"/><path class="s" d="M131.3,227.1h35.4v22.3H131.3a1.6,1.6,0,0,1-1.6-1.6V228.6A1.6,1.6,0,0,1,131.3,227.1Z"/><path class="u" d="M198.7,235h0a1.3,1.3,0,0,1,1.2,1.2h0a1.3,1.3,0,0,1-1.2,1.2h0a1.3,1.3,0,0,1-1.2-1.2h0A1.3,1.3,0,0,1,198.7,235Z"/><path class="d" d="M201.5,239.7h0a1.1,1.1,0,0,1,1.1,1.1h0a1.1,1.1,0,0,1-1.1,1.2h0a1.2,1.2,0,0,1-1.2-1.2h0A1.1,1.1,0,0,1,201.5,239.7Z"/><path class="u" d="M203.3,235h0a1.2,1.2,0,0,1,1.2,1.2h0a1.2,1.2,0,0,1-1.2,1.2h0a1.2,1.2,0,0,1-1.1-1.2h0A1.2,1.2,0,0,1,203.3,235Z"/><path class="u" d="M206.1,239.7h0a1.1,1.1,0,0,1,1.2,1.1h0a1.2,1.2,0,0,1-1.2,1.2h0a1.1,1.1,0,0,1-1.1-1.2h0A1.1,1.1,0,0,1,206.1,239.7Z"/><path class="e" d="M208,235h0a1.2,1.2,0,0,1,1.1,1.2h0a1.2,1.2,0,0,1-1.1,1.2h0a1.2,1.2,0,0,1-1.2-1.2h0A1.2,1.2,0,0,1,208,235Z"/><path class="u" d="M210.8,239.7h0a1.1,1.1,0,0,1,1.1,1.1h0a1.1,1.1,0,0,1-1.1,1.2h0a1.2,1.2,0,0,1-1.2-1.2h0A1.1,1.1,0,0,1,210.8,239.7Z"/><path class="u" d="M212.6,235h0a1.2,1.2,0,0,1,1.2,1.2h0a1.2,1.2,0,0,1-1.2,1.2h0a1.2,1.2,0,0,1-1.1-1.2h0A1.2,1.2,0,0,1,212.6,235Z"/><path class="d" d="M215.4,239.7h0a1.2,1.2,0,0,1,1.2,1.1h0a1.2,1.2,0,0,1-1.2,1.2h0a1.2,1.2,0,0,1-1.2-1.2h0A1.2,1.2,0,0,1,215.4,239.7Z"/><path class="u" d="M217.3,235h0a1.2,1.2,0,0,1,1.1,1.2h0a1.2,1.2,0,0,1-1.1,1.2h0a1.2,1.2,0,0,1-1.2-1.2h0A1.2,1.2,0,0,1,217.3,235Z"/><path class="u" d="M220,239.7h0a1.1,1.1,0,0,1,1.2,1.1h0A1.2,1.2,0,0,1,220,242h0a1.1,1.1,0,0,1-1.1-1.2h0A1.1,1.1,0,0,1,220,239.7Z"/><circle class="j" cx="228.2" cy="238.3" r="2"/><circle class="v" cx="228.2" cy="238.3" r="1.6"/><path class="u" d="M193.3,234.2h0a.9.9,0,0,1,.9.8v6.6a.9.9,0,0,1-.9.9h0a.9.9,0,0,1-.9-.9V235A.9.9,0,0,1,193.3,234.2Z"/><path class="u" d="M189.8,234.2h0a.9.9,0,0,1,.9.8v6.6a.9.9,0,0,1-.9.9h0a.9.9,0,0,1-.9-.9V235A.9.9,0,0,1,189.8,234.2Z"/><rect class="s" x="172.2" y="234.2" width="14" height="3.51"/><rect class="s" x="172.2" y="239" width="14" height="3.51"/><path class="e" d="M192.4,235.9h1.8v5.7a.9.9,0,0,1-.9.9h0a.9.9,0,0,1-.9-.9v-5.7Z"/><path class="d" d="M188.9,239.3h1.8v2.3a.9.9,0,0,1-.9.9h0a.9.9,0,0,1-.9-.9h0v-2.3Z"/><rect class="w" x="172.2" y="234.2" width="3.5" height="3.51"/><rect class="w" x="172.2" y="239" width="3.5" height="3.51"/><rect class="f" x="177.5" y="235.5" width="7" height="0.88"/><rect class="f" x="177.5" y="240.3" width="7" height="0.88"/><circle class="j" cx="228.2" cy="238.3" r="4.2"/><circle class="x" cx="228.2" cy="238.3" r="3.8"/><path class="f" d="M156.7,241.7h0a1.5,1.5,0,0,1,1.4,1.5h0a1.4,1.4,0,0,1-1.4,1.4h0a1.5,1.5,0,0,1-1.5-1.4h0A1.5,1.5,0,0,1,156.7,241.7Z"/><path class="g" d="M156.8,233.2h0a.7.7,0,0,1,.6.7v5.7a.7.7,0,0,1-.6.7h0a.7.7,0,0,1-.7-.7v-5.7A.7.7,0,0,1,156.8,233.2Z"/><path class="y" d="M152.3,241.7h0a1.5,1.5,0,0,1,1.4,1.5h0a1.4,1.4,0,0,1-1.4,1.4h0a1.5,1.5,0,0,1-1.5-1.4h0A1.5,1.5,0,0,1,152.3,241.7Z"/><path class="z" d="M152.4,235.9h0a.6.6,0,0,1,.6.6v3.1a.7.7,0,0,1-.6.7h0a.7.7,0,0,1-.7-.7v-3.1A.7.7,0,0,1,152.4,235.9Z"/><path class="f" d="M147.9,241.7h0a1.5,1.5,0,0,1,1.5,1.5h0a1.5,1.5,0,0,1-1.5,1.4h0a1.4,1.4,0,0,1-1.4-1.4h0A1.5,1.5,0,0,1,147.9,241.7Z"/><path class="g" d="M148,232.2h0c.4,0,.6.3.6.7v6.7c0,.4-.2.7-.6.7h0a.7.7,0,0,1-.7-.7v-6.7A.7.7,0,0,1,148,232.2Z"/><path class="e" d="M143.5,241.7h0a1.5,1.5,0,0,1,1.5,1.5h0a1.5,1.5,0,0,1-1.5,1.4h0a1.4,1.4,0,0,1-1.4-1.4h0A1.5,1.5,0,0,1,143.5,241.7Z"/><path class="e" d="M143.6,233.9h0a.7.7,0,0,1,.7.7v5a.7.7,0,0,1-.7.7h0a.7.7,0,0,1-.7-.7v-5A.7.7,0,0,1,143.6,233.9Z"/><path class="d" d="M139.1,241.7h0a1.5,1.5,0,0,1,1.5,1.5h0a1.5,1.5,0,0,1-1.5,1.4h0a1.4,1.4,0,0,1-1.4-1.4h0A1.5,1.5,0,0,1,139.1,241.7Z"/><path class="d" d="M139.2,236.8h0a.7.7,0,0,1,.7.6v2.2a.7.7,0,0,1-.7.7h0a.7.7,0,0,1-.6-.7v-2.2A.6.6,0,0,1,139.2,236.8Z"/><rect class="c" x="134.4" y="274.6" width="100" height="7.77"/><path class="t" d="M133.3,253.6H235.6c2,0,3.7,1.2,3.7,2.7v16.9c0,1.5-1.7,2.7-3.7,2.7H133.3c-2,0-3.6-1.2-3.6-2.7V256.3C129.7,254.8,131.3,253.6,133.3,253.6Z"/><path class="s" d="M131.3,253.6h35.4v22.3H131.3a1.6,1.6,0,0,1-1.6-1.6V255.2A1.6,1.6,0,0,1,131.3,253.6Z"/><path class="u" d="M198.7,261.6h0a1.2,1.2,0,0,1,1.2,1.1h0a1.2,1.2,0,0,1-1.2,1.2h0a1.2,1.2,0,0,1-1.2-1.2h0A1.2,1.2,0,0,1,198.7,261.6Z"/><path class="d" d="M201.5,266.2h0a1.1,1.1,0,0,1,1.1,1.2h0a1.1,1.1,0,0,1-1.1,1.1h0a1.1,1.1,0,0,1-1.2-1.1h0A1.2,1.2,0,0,1,201.5,266.2Z"/><path class="u" d="M203.3,261.6h0a1.1,1.1,0,0,1,1.2,1.1h0a1.2,1.2,0,0,1-1.2,1.2h0a1.1,1.1,0,0,1-1.1-1.2h0A1.1,1.1,0,0,1,203.3,261.6Z"/><path class="u" d="M206.1,266.2h0a1.2,1.2,0,0,1,1.2,1.2h0a1.1,1.1,0,0,1-1.2,1.1h0a1.1,1.1,0,0,1-1.1-1.1h0A1.1,1.1,0,0,1,206.1,266.2Z"/><path class="e" d="M208,261.6h0a1.1,1.1,0,0,1,1.1,1.1h0a1.1,1.1,0,0,1-1.1,1.2h0a1.2,1.2,0,0,1-1.2-1.2h0A1.1,1.1,0,0,1,208,261.6Z"/><path class="u" d="M210.8,266.2h0a1.1,1.1,0,0,1,1.1,1.2h0a1.1,1.1,0,0,1-1.1,1.1h0a1.1,1.1,0,0,1-1.2-1.1h0A1.2,1.2,0,0,1,210.8,266.2Z"/><path class="u" d="M212.6,261.6h0a1.1,1.1,0,0,1,1.2,1.1h0a1.2,1.2,0,0,1-1.2,1.2h0a1.1,1.1,0,0,1-1.1-1.2h0A1.1,1.1,0,0,1,212.6,261.6Z"/><path class="d" d="M215.4,266.2h0a1.2,1.2,0,0,1,1.2,1.2h0a1.2,1.2,0,0,1-1.2,1.1h0a1.2,1.2,0,0,1-1.2-1.1h0A1.2,1.2,0,0,1,215.4,266.2Z"/><path class="u" d="M217.3,261.6h0a1.1,1.1,0,0,1,1.1,1.1h0a1.1,1.1,0,0,1-1.1,1.2h0a1.2,1.2,0,0,1-1.2-1.2h0A1.1,1.1,0,0,1,217.3,261.6Z"/><path class="u" d="M220,266.2h0a1.2,1.2,0,0,1,1.2,1.2h0a1.1,1.1,0,0,1-1.2,1.1h0a1.1,1.1,0,0,1-1.1-1.1h0A1.1,1.1,0,0,1,220,266.2Z"/><circle class="j" cx="228.2" cy="264.9" r="2"/><circle class="v" cx="228.2" cy="264.9" r="1.6"/><path class="u" d="M193.3,260.7h0a.9.9,0,0,1,.9.9v6.6a.9.9,0,0,1-.9.8h0a.9.9,0,0,1-.9-.8v-6.6A.9.9,0,0,1,193.3,260.7Z"/><path class="u" d="M189.8,260.7h0a.9.9,0,0,1,.9.9v6.6a.9.9,0,0,1-.9.8h0a.9.9,0,0,1-.9-.8v-6.6A.9.9,0,0,1,189.8,260.7Z"/><rect class="s" x="172.2" y="260.7" width="14" height="3.51"/><rect class="s" x="172.2" y="265.5" width="14" height="3.51"/><path class="e" d="M192.4,262.5h1.8v5.7a.9.9,0,0,1-.9.8h0a.9.9,0,0,1-.9-.8v-5.7Z"/><path class="d" d="M188.9,265.8h1.8v2.4a.9.9,0,0,1-.9.8h0a.9.9,0,0,1-.9-.8h0v-2.4Z"/><rect class="w" x="172.2" y="260.7" width="3.5" height="3.51"/><rect class="w" x="172.2" y="265.5" width="3.5" height="3.51"/><rect class="f" x="177.5" y="262" width="7" height="0.88"/><rect class="f" x="177.5" y="266.8" width="7" height="0.88"/><circle class="j" cx="228.2" cy="264.9" r="4.2"/><circle class="x" cx="228.2" cy="264.9" r="3.8"/><path class="f" d="M156.7,268.3h0a1.4,1.4,0,0,1,1.4,1.4h0a1.5,1.5,0,0,1-1.4,1.5h0a1.5,1.5,0,0,1-1.5-1.5h0A1.5,1.5,0,0,1,156.7,268.3Z"/><path class="g" d="M156.8,259.8h0a.6.6,0,0,1,.6.6v5.7a.7.7,0,0,1-.6.7h0a.7.7,0,0,1-.7-.7v-5.7A.7.7,0,0,1,156.8,259.8Z"/><path class="y" d="M152.3,268.3h0a1.4,1.4,0,0,1,1.4,1.4h0a1.5,1.5,0,0,1-1.4,1.5h0a1.5,1.5,0,0,1-1.5-1.5h0A1.5,1.5,0,0,1,152.3,268.3Z"/><path class="z" d="M152.4,262.4h0a.7.7,0,0,1,.6.7v3a.7.7,0,0,1-.6.7h0a.7.7,0,0,1-.7-.7v-3A.7.7,0,0,1,152.4,262.4Z"/><path class="f" d="M147.9,268.3h0a1.5,1.5,0,0,1,1.5,1.4h0a1.5,1.5,0,0,1-1.5,1.5h0a1.5,1.5,0,0,1-1.4-1.5h0A1.4,1.4,0,0,1,147.9,268.3Z"/><path class="g" d="M148,258.8h0a.6.6,0,0,1,.6.6v6.7c0,.4-.2.7-.6.7h0a.7.7,0,0,1-.7-.7v-6.7A.7.7,0,0,1,148,258.8Z"/><path class="e" d="M143.5,268.3h0a1.5,1.5,0,0,1,1.5,1.4h0a1.5,1.5,0,0,1-1.5,1.5h0a1.5,1.5,0,0,1-1.4-1.5h0A1.4,1.4,0,0,1,143.5,268.3Z"/><path class="e" d="M143.6,260.5h0c.4,0,.7.2.7.6v5a.7.7,0,0,1-.7.7h0a.7.7,0,0,1-.7-.7v-5C142.9,260.7,143.2,260.5,143.6,260.5Z"/><path class="d" d="M139.1,268.3h0a1.5,1.5,0,0,1,1.5,1.4h0a1.5,1.5,0,0,1-1.5,1.5h0a1.5,1.5,0,0,1-1.4-1.5h0A1.4,1.4,0,0,1,139.1,268.3Z"/><path class="d" d="M139.2,263.3h0a.7.7,0,0,1,.7.7v2.1a.7.7,0,0,1-.7.7h0a.7.7,0,0,1-.6-.7V264A.7.7,0,0,1,139.2,263.3Z"/><path class="t" d="M133.3,280.1H235.6c2,0,3.7,1.2,3.7,2.7v17c0,1.4-1.7,2.6-3.7,2.6H133.3c-2,0-3.6-1.2-3.6-2.6v-17C129.7,281.3,131.3,280.1,133.3,280.1Z"/><path class="s" d="M131.3,280.1h35.4v22.3H131.3a1.6,1.6,0,0,1-1.6-1.6V281.7A1.6,1.6,0,0,1,131.3,280.1Z"/><path class="u" d="M198.7,288.1h0a1.2,1.2,0,0,1,1.2,1.2h0a1.2,1.2,0,0,1-1.2,1.1h0a1.2,1.2,0,0,1-1.2-1.1h0A1.2,1.2,0,0,1,198.7,288.1Z"/><path class="d" d="M201.5,292.8h0a1.1,1.1,0,0,1,1.1,1.1h0a1.1,1.1,0,0,1-1.1,1.2h0a1.2,1.2,0,0,1-1.2-1.2h0A1.1,1.1,0,0,1,201.5,292.8Z"/><path class="u" d="M203.3,288.1h0a1.2,1.2,0,0,1,1.2,1.2h0a1.1,1.1,0,0,1-1.2,1.1h0a1.1,1.1,0,0,1-1.1-1.1h0A1.1,1.1,0,0,1,203.3,288.1Z"/><path class="u" d="M206.1,292.8h0a1.1,1.1,0,0,1,1.2,1.1h0a1.2,1.2,0,0,1-1.2,1.2h0a1.1,1.1,0,0,1-1.1-1.2h0A1.1,1.1,0,0,1,206.1,292.8Z"/><path class="e" d="M208,288.1h0a1.1,1.1,0,0,1,1.1,1.2h0a1.1,1.1,0,0,1-1.1,1.1h0a1.1,1.1,0,0,1-1.2-1.1h0A1.2,1.2,0,0,1,208,288.1Z"/><path class="u" d="M210.8,292.8h0a1.1,1.1,0,0,1,1.1,1.1h0a1.1,1.1,0,0,1-1.1,1.2h0a1.2,1.2,0,0,1-1.2-1.2h0A1.1,1.1,0,0,1,210.8,292.8Z"/><path class="u" d="M212.6,288.1h0a1.2,1.2,0,0,1,1.2,1.2h0a1.1,1.1,0,0,1-1.2,1.1h0a1.1,1.1,0,0,1-1.1-1.1h0A1.1,1.1,0,0,1,212.6,288.1Z"/><path class="d" d="M215.4,292.8h0a1.2,1.2,0,0,1,1.2,1.1h0a1.2,1.2,0,0,1-1.2,1.2h0a1.2,1.2,0,0,1-1.2-1.2h0A1.2,1.2,0,0,1,215.4,292.8Z"/><path class="u" d="M217.3,288.1h0a1.1,1.1,0,0,1,1.1,1.2h0a1.1,1.1,0,0,1-1.1,1.1h0a1.1,1.1,0,0,1-1.2-1.1h0A1.2,1.2,0,0,1,217.3,288.1Z"/><path class="u" d="M220,292.8h0a1.1,1.1,0,0,1,1.2,1.1h0a1.2,1.2,0,0,1-1.2,1.2h0a1.1,1.1,0,0,1-1.1-1.2h0A1.1,1.1,0,0,1,220,292.8Z"/><circle class="j" cx="228.2" cy="291.4" r="2"/><circle class="v" cx="228.2" cy="291.4" r="1.6"/><path class="u" d="M193.3,287.2h0a.9.9,0,0,1,.9.9v6.6a.9.9,0,0,1-.9.9h0a.9.9,0,0,1-.9-.9v-6.6A.9.9,0,0,1,193.3,287.2Z"/><path class="u" d="M189.8,287.2h0a.9.9,0,0,1,.9.9v6.6a.9.9,0,0,1-.9.9h0a.9.9,0,0,1-.9-.9v-6.6A.9.9,0,0,1,189.8,287.2Z"/><rect class="s" x="172.2" y="287.2" width="14" height="3.51"/><rect class="s" x="172.2" y="292.1" width="14" height="3.51"/><path class="e" d="M192.4,289h1.8v5.7a.9.9,0,0,1-.9.9h0a.9.9,0,0,1-.9-.9V289Z"/><path class="d" d="M188.9,292.3h1.8v2.4a.9.9,0,0,1-.9.9h0a.9.9,0,0,1-.9-.9h0v-2.4Z"/><rect class="w" x="172.2" y="287.2" width="3.5" height="3.51"/><rect class="w" x="172.2" y="292.1" width="3.5" height="3.51"/><rect class="f" x="177.5" y="288.6" width="7" height="0.88"/><rect class="f" x="177.5" y="293.4" width="7" height="0.88"/><circle class="j" cx="228.2" cy="291.4" r="4.2"/><circle class="x" cx="228.2" cy="291.4" r="3.8"/><path class="f" d="M156.7,294.4h0a1.5,1.5,0,0,1,1.4,1.5h0a1.4,1.4,0,0,1-1.4,1.4h0a1.5,1.5,0,0,1-1.5-1.4h0A1.5,1.5,0,0,1,156.7,294.4Z"/><path class="g" d="M156.8,285.9h0a.7.7,0,0,1,.6.7v5.7a.6.6,0,0,1-.6.6h0c-.4,0-.7-.2-.7-.6v-5.7A.7.7,0,0,1,156.8,285.9Z"/><path class="y" d="M152.3,294.4h0a1.5,1.5,0,0,1,1.4,1.5h0a1.4,1.4,0,0,1-1.4,1.4h0a1.5,1.5,0,0,1-1.5-1.4h0A1.5,1.5,0,0,1,152.3,294.4Z"/><path class="z" d="M152.4,288.6h0a.6.6,0,0,1,.6.6v3.1a.6.6,0,0,1-.6.6h0c-.4,0-.7-.2-.7-.6v-3.1A.7.7,0,0,1,152.4,288.6Z"/><path class="f" d="M147.9,294.4h0a1.5,1.5,0,0,1,1.5,1.5h0a1.5,1.5,0,0,1-1.5,1.4h0a1.4,1.4,0,0,1-1.4-1.4h0A1.5,1.5,0,0,1,147.9,294.4Z"/><path class="g" d="M148,284.9h0c.4,0,.6.3.6.7v6.7a.5.5,0,0,1-.6.6h0c-.4,0-.7-.2-.7-.6v-6.7A.7.7,0,0,1,148,284.9Z"/><path class="e" d="M143.5,294.4h0a1.5,1.5,0,0,1,1.5,1.5h0a1.5,1.5,0,0,1-1.5,1.4h0a1.4,1.4,0,0,1-1.4-1.4h0A1.5,1.5,0,0,1,143.5,294.4Z"/><path class="e" d="M143.6,286.6h0a.7.7,0,0,1,.7.7v5c0,.4-.3.6-.7.6h0c-.4,0-.7-.2-.7-.6v-5A.7.7,0,0,1,143.6,286.6Z"/><path class="d" d="M139.1,294.4h0a1.5,1.5,0,0,1,1.5,1.5h0a1.5,1.5,0,0,1-1.5,1.4h0a1.4,1.4,0,0,1-1.4-1.4h0A1.5,1.5,0,0,1,139.1,294.4Z"/><path class="d" d="M139.2,289.4h0a.7.7,0,0,1,.7.7v2.2c0,.4-.3.6-.7.6h0a.6.6,0,0,1-.6-.6v-2.2A.7.7,0,0,1,139.2,289.4Z"/></svg>